<svg width="57" height="56" viewBox="0 0 57 56" fill="none" xmlns="http://www.w3.org/2000/svg">
    <path
        d="M36.2888 21.4939C32.778 23.5098 30.6191 27.2098 30.6191 31.2119V35.9995L38.6638 31.3807C42.1747 29.3647 44.3335 25.6647 44.3335 21.6626V16.875L36.2888 21.4939Z"
        fill="url(#paint0_linear_8088_61937)" />
    <path
        d="M12.333 34.8745L20.3777 39.4942C23.8885 41.5101 26.0474 45.2101 26.0474 49.2122V53.9998L18.0027 49.3794C14.4918 47.3634 12.333 43.6634 12.333 39.6621V34.8745Z"
        fill="url(#paint1_linear_8088_61937)" />
    <path
        d="M28.3331 21.3745L30.2568 19.8608C35.4067 15.8046 36.0094 8.31263 31.573 3.50854L28.3332 0L25.0925 3.50854C20.6561 8.31203 21.2596 15.8044 26.4095 19.86L28.3331 21.3745Z"
        fill="url(#paint2_linear_8088_61937)" />
    <path
        d="M30.6191 53.9989V49.2105C30.6191 45.2091 32.778 41.5091 36.2888 39.4924L44.3335 34.8735V39.6619C44.3335 43.6633 42.1747 47.3633 38.6638 49.38L30.6191 53.9989Z"
        fill="url(#paint3_linear_8088_61937)" />
    <path
        d="M12.333 16.875L20.3777 21.4939C23.8885 23.5098 26.0474 27.2098 26.0474 31.2119V35.9995L18.0027 31.3799C14.4918 29.3639 12.333 25.6639 12.333 21.6626V16.875Z"
        fill="url(#paint4_linear_8088_61937)" />
    <defs>
        <linearGradient id="paint0_linear_8088_61937" x1="37.4763" y1="16.875" x2="37.4763" y2="35.9995"
            gradientUnits="userSpaceOnUse">
            <stop stop-color="#337BFC" />
            <stop offset="0.947917" stop-color="#001F83" />
        </linearGradient>
        <linearGradient id="paint1_linear_8088_61937" x1="12.333" y1="32.9996" x2="16.768" y2="59.5956"
            gradientUnits="userSpaceOnUse">
            <stop stop-color="#3F7FFE" />
            <stop offset="1" stop-color="white" stop-opacity="0" />
        </linearGradient>
        <linearGradient id="paint2_linear_8088_61937" x1="28.3329" y1="0" x2="28.3329" y2="21.3745"
            gradientUnits="userSpaceOnUse">
            <stop stop-color="#337BFC" />
            <stop offset="0.947917" stop-color="#001F83" />
        </linearGradient>
        <linearGradient id="paint3_linear_8088_61937" x1="46.1141" y1="43.935" x2="27.7531" y2="46.3921"
            gradientUnits="userSpaceOnUse">
            <stop stop-color="#3F7FFE" />
            <stop offset="1" stop-color="white" stop-opacity="0" />
        </linearGradient>
        <linearGradient id="paint4_linear_8088_61937" x1="19.1902" y1="16.875" x2="19.1902" y2="35.9995"
            gradientUnits="userSpaceOnUse">
            <stop stop-color="#337BFC" />
            <stop offset="0.947917" stop-color="#001F83" />
        </linearGradient>
    </defs>
</svg>