<svg width="57" height="56" viewBox="0 0 57 56" fill="none" xmlns="http://www.w3.org/2000/svg">
    <path fill-rule="evenodd" clip-rule="evenodd"
        d="M35.3487 44.1422V46.0758C35.3487 47.5994 36.5886 48.8444 38.1125 48.8444L48.3366 48.8482C48.7082 47.425 50.0026 46.3741 51.5424 46.3741C53.3722 46.3741 54.8552 47.8571 54.8552 49.687C54.8552 51.5169 53.3722 52.9999 51.5424 52.9999C50.0018 52.9999 48.7074 51.9487 48.3366 50.5245L38.1125 50.5207C35.664 50.5203 33.6656 48.5245 33.6656 46.0755V44.7357C34.2582 44.6368 34.8274 44.4353 35.3487 44.1422ZM20.307 16.0429C21.587 16.138 22.7828 16.694 23.6852 17.6078C24.0299 17.9581 24.0252 18.5221 23.6749 18.8668C23.3247 19.2115 22.7606 19.2069 22.416 18.8566C21.7525 18.185 20.8583 17.8147 19.9146 17.8147C17.9735 17.8147 16.4004 19.3886 16.4004 21.329C16.4004 22.425 16.8927 23.4392 17.7678 24.115C18.1569 24.4158 18.229 24.9747 17.9282 25.3638C17.6274 25.7529 17.0685 25.8251 16.6794 25.5243C16.1773 25.1365 15.7459 24.6586 15.4089 24.1142C14.7578 24.8668 14.4071 25.8152 14.4071 26.8123C14.4071 27.672 14.664 28.4916 15.1597 29.1921C16.2092 28.2813 17.5787 27.73 19.0766 27.73C19.5698 27.73 19.97 28.1302 19.97 28.6234C19.97 29.1166 19.5698 29.5168 19.0766 29.5168C16.7609 29.5168 14.8836 31.3936 14.8836 33.7099C14.8836 36.0257 16.7604 37.903 19.0766 37.903C20.1986 37.903 21.2474 37.4712 22.041 36.6785C22.3895 36.3321 22.9531 36.3334 23.2999 36.6824C23.6464 37.0309 23.6451 37.5945 23.2961 37.9414C22.413 38.8224 21.2721 39.4082 20.0426 39.6099C20.0426 41.552 21.6126 43.1255 23.555 43.1255C25.4677 43.1255 27.0675 41.5252 27.0675 39.613V17.3887C27.0675 15.5123 25.4339 13.8761 23.555 13.8761C22.1305 13.877 20.8518 14.7331 20.307 16.0429ZM37.2808 29.5164C36.7876 29.5164 36.3874 29.1162 36.3874 28.623C36.3874 28.1298 36.7876 27.7296 37.2808 27.7296C38.7792 27.7296 40.1482 28.2809 41.1977 29.1918C41.6935 28.4916 41.9503 27.6708 41.9503 26.812C41.9503 25.8153 41.5992 24.8661 40.9486 24.1139C40.6115 24.6578 40.1811 25.1357 39.678 25.5239C39.2889 25.8247 38.73 25.7526 38.4292 25.3635C38.1284 24.9744 38.2005 24.4155 38.5896 24.1146C39.4651 23.4393 39.9571 22.4242 39.9571 21.3286C39.9571 19.3875 38.3832 17.8143 36.4428 17.8143C35.4991 17.8143 34.6053 18.1847 33.9415 18.8562C33.5968 19.2065 33.0332 19.2116 32.6825 18.8664C32.3322 18.5217 32.3271 17.9581 32.6723 17.6075C33.5746 16.694 34.7705 16.1377 36.0504 16.0425C35.5056 14.7319 34.227 13.8756 32.8024 13.8756C30.9235 13.8756 29.29 15.5117 29.29 17.3881V39.6114C29.29 41.5232 30.8898 43.1239 32.8024 43.1239C34.7449 43.1239 36.3149 41.55 36.3149 39.6083C35.0845 39.4056 33.9441 38.8207 33.0614 37.9397C32.7128 37.5933 32.7111 37.0293 33.0576 36.6807C33.404 36.3322 33.968 36.3305 34.3165 36.6769C35.1109 37.4696 36.1596 37.9014 37.2809 37.9014C39.5966 37.9014 41.4739 36.0245 41.4739 33.7083C41.4739 31.3929 39.597 29.5164 37.2808 29.5164ZM4.8142 4C6.35473 4 7.6492 5.05125 8.02 6.47539L18.2441 6.47923C20.6926 6.47965 22.6909 8.47546 22.6909 10.9244V12.2642C22.0983 12.3636 21.5296 12.5641 21.0079 12.8572V10.9249C21.0079 9.40141 19.768 8.15639 18.2441 8.15639L8.02109 8.15213C7.6495 9.57539 6.35506 10.6262 4.81529 10.6262C2.98543 10.6262 1.50245 9.1432 1.50245 7.31331C1.50202 5.48298 2.98433 4 4.8142 4ZM51.5427 4C50.0022 4 48.7077 5.05125 48.3369 6.47539L38.1128 6.47965C35.6644 6.48008 33.666 8.47589 33.666 10.9248V12.2646C34.2586 12.364 34.8273 12.5646 35.349 12.8577V10.9249C35.349 9.4014 36.5889 8.15638 38.1128 8.15638L48.3369 8.15254C48.7085 9.5758 50.0029 10.6266 51.5427 10.6266C53.3726 10.6266 54.8556 9.14362 54.8556 7.31373C54.856 5.48383 53.3726 4 51.5427 4ZM51.5427 33.7007C53.3726 33.7007 54.8556 35.1837 54.8556 37.0136C54.8556 38.8435 53.3726 40.3265 51.5427 40.3265C50.0022 40.3265 48.7077 39.2752 48.3369 37.8506L41.4524 37.8477C41.9409 37.3553 42.3334 36.7875 42.6176 36.1713L48.3374 36.1739C48.7085 34.7515 50.0025 33.7007 51.5427 33.7007ZM51.5427 16.6731C53.3726 16.6731 54.8556 18.1561 54.8556 19.986C54.8556 21.8159 53.3726 23.2989 51.5427 23.2989C50.0029 23.2989 48.709 22.2481 48.3369 20.8248L41.6167 20.8278C41.5608 20.2437 41.4064 19.678 41.1636 19.1515L48.3356 19.1485C48.7067 17.7244 50.0022 16.6731 51.5427 16.6731ZM4.8142 33.7007C6.35397 33.7007 7.64789 34.7515 8.02 36.1748L13.7398 36.1722C14.0248 36.7883 14.4164 37.3562 14.9049 37.8485L8.02044 37.8515C7.64969 39.2761 6.35484 40.3273 4.81463 40.3273C2.98477 40.3273 1.50179 38.8443 1.50179 37.0144C1.50179 35.1846 2.98433 33.7007 4.8142 33.7007ZM4.8142 16.6731C6.35473 16.6731 7.6492 17.7244 8.02 19.1489L15.1919 19.1519C14.9492 19.678 14.7952 20.2441 14.7389 20.8282L8.01865 20.8253C7.64705 22.2485 6.35262 23.2993 4.81284 23.2993C2.98298 23.2993 1.5 21.8163 1.5 19.9864C1.50128 18.1565 2.98433 16.6731 4.8142 16.6731ZM4.8142 46.3738C6.35397 46.3738 7.64877 47.4246 8.02 48.8479L18.2441 48.844C19.768 48.8436 21.0079 47.5987 21.0079 46.0755L21.0083 44.1414C21.5297 44.4345 22.0984 44.6359 22.6914 44.7353V46.0751C22.6914 48.5241 20.6921 50.5194 18.2445 50.5203L8.02043 50.5241C7.64926 51.9487 6.3544 53 4.81386 53C2.984 53 1.50102 51.517 1.50102 49.6871C1.50102 47.8572 2.98433 46.3738 4.8142 46.3738Z"
        fill="url(#paint0_linear_8109_58643)" />
    <path fill-rule="evenodd" clip-rule="evenodd"
        d="M20.3071 16.0429C21.5871 16.1381 22.7829 16.694 23.6853 17.6078C24.03 17.9581 24.0253 18.5221 23.675 18.8668C23.3248 19.2115 22.7608 19.2069 22.4161 18.8566C21.7527 18.1851 20.8584 17.8147 19.9147 17.8147C17.9736 17.8147 16.4005 19.3886 16.4005 21.329C16.4005 22.4251 16.8928 23.4392 17.7679 24.115C18.157 24.4158 18.2291 24.9747 17.9283 25.3639C17.6276 25.753 17.0687 25.8251 16.6795 25.5243C16.1774 25.1365 15.746 24.6586 15.409 24.1142C14.7579 24.8668 14.4072 25.8153 14.4072 26.8123C14.4072 27.672 14.6641 28.4916 15.1598 29.1922C16.2093 28.2813 17.5788 27.73 19.0768 27.73C19.5699 27.73 19.9701 28.1302 19.9701 28.6234C19.9701 29.1166 19.5699 29.5168 19.0768 29.5168C16.761 29.5168 14.8837 31.3937 14.8837 33.7099C14.8837 36.0257 16.7605 37.903 19.0768 37.903C20.1988 37.903 21.2475 37.4713 22.0411 36.6785C22.3896 36.3321 22.9532 36.3334 23.3 36.6824C23.6465 37.031 23.6452 37.5946 23.2962 37.9414C22.4131 38.8224 21.2723 39.4082 20.0427 39.6099C20.0427 41.552 21.6127 43.1256 23.5552 43.1256C25.4678 43.1256 27.0677 41.5253 27.0677 39.613V17.3887C27.0677 15.5123 25.4341 13.8761 23.5552 13.8761C22.1306 13.877 20.8519 14.7331 20.3071 16.0429ZM37.2809 29.5164C36.7877 29.5164 36.3875 29.1162 36.3875 28.623C36.3875 28.1298 36.7877 27.7296 37.2809 27.7296C38.7793 27.7296 40.1484 28.2809 41.1978 29.1918C41.6936 28.4917 41.9504 27.6708 41.9504 26.812C41.9504 25.8153 41.5993 24.8661 40.9487 24.1139C40.6116 24.6579 40.1812 25.1357 39.6781 25.5239C39.289 25.8247 38.7301 25.7526 38.4293 25.3635C38.1285 24.9744 38.2006 24.4155 38.5897 24.1147C39.4652 23.4393 39.9572 22.4243 39.9572 21.3287C39.9572 19.3875 38.3833 17.8144 36.4429 17.8144C35.4992 17.8144 34.6054 18.1847 33.9416 18.8562C33.5969 19.2065 33.0333 19.2116 32.6826 18.8665C32.3323 18.5217 32.3272 17.9581 32.6724 17.6075C33.5747 16.694 34.7706 16.1377 36.0505 16.0426C35.5057 14.7319 34.2271 13.8756 32.8026 13.8756C30.9237 13.8756 29.2901 15.5117 29.2901 17.3882V39.6114C29.2901 41.5232 30.8899 43.1239 32.8026 43.1239C34.745 43.1239 36.3151 41.5501 36.3151 39.6083C35.0846 39.4057 33.9442 38.8207 33.0615 37.9398C32.713 37.5933 32.7113 37.0293 33.0577 36.6808C33.4041 36.3322 33.9681 36.3305 34.3167 36.6769C35.111 37.4696 36.1597 37.9014 37.281 37.9014C39.5968 37.9014 41.474 36.0245 41.474 33.7083C41.474 31.3929 39.5971 29.5164 37.2809 29.5164Z"
        fill="url(#paint1_linear_8109_58643)" />
    <defs>
        <linearGradient id="paint0_linear_8109_58643" x1="64.5265" y1="26.9876" x2="-63.2502" y2="33.0529"
            gradientUnits="userSpaceOnUse">
            <stop stop-color="#3F7FFE" />
            <stop offset="1" stop-color="white" stop-opacity="0" />
        </linearGradient>
        <linearGradient id="paint1_linear_8109_58643" x1="28.1788" y1="13.8756" x2="28.1788" y2="43.1256"
            gradientUnits="userSpaceOnUse">
            <stop stop-color="#337BFC" />
            <stop offset="0.947917" stop-color="#001F83" />
        </linearGradient>
    </defs>
</svg>