<svg width="40" height="44" viewBox="0 0 40 44" fill="none" xmlns="http://www.w3.org/2000/svg">
    <rect x="0.75" y="0.125" width="22.75" height="43.75" rx="2" fill="url(#paint0_linear_8109_58631)" />
    <rect x="6" y="2.75" width="13.125" height="1.75" rx="0.875" fill="white" />
    <circle cx="12.5625" cy="40.8125" r="1.3125" fill="white" />
    <mask id="path-4-outside-1_8109_58631" maskUnits="userSpaceOnUse" x="9.25" y="7.75" width="29" height="29"
        fill="black">
        <rect fill="white" x="9.25" y="7.75" width="29" height="29" />
        <path
            d="M35.75 22C35.75 24.4228 35.0315 26.7912 33.6855 28.8057C32.3395 30.8202 30.4263 32.3904 28.1879 33.3175C25.9495 34.2447 23.4864 34.4873 21.1101 34.0146C18.7339 33.542 16.5511 32.3753 14.8379 30.6621C13.1247 28.9489 11.958 26.7661 11.4854 24.3899C11.0127 22.0136 11.2553 19.5505 12.1825 17.3121C13.1096 15.0737 14.6798 13.1605 16.6943 11.8145C18.7088 10.4684 21.0772 9.75 23.5 9.75V22H35.75Z" />
    </mask>
    <path
        d="M35.75 22C35.75 24.4228 35.0315 26.7912 33.6855 28.8057C32.3395 30.8202 30.4263 32.3904 28.1879 33.3175C25.9495 34.2447 23.4864 34.4873 21.1101 34.0146C18.7339 33.542 16.5511 32.3753 14.8379 30.6621C13.1247 28.9489 11.958 26.7661 11.4854 24.3899C11.0127 22.0136 11.2553 19.5505 12.1825 17.3121C13.1096 15.0737 14.6798 13.1605 16.6943 11.8145C18.7088 10.4684 21.0772 9.75 23.5 9.75V22H35.75Z"
        fill="url(#paint1_linear_8109_58631)" />
    <path
        d="M35.75 22C35.75 24.4228 35.0315 26.7912 33.6855 28.8057C32.3395 30.8202 30.4263 32.3904 28.1879 33.3175C25.9495 34.2447 23.4864 34.4873 21.1101 34.0146C18.7339 33.542 16.5511 32.3753 14.8379 30.6621C13.1247 28.9489 11.958 26.7661 11.4854 24.3899C11.0127 22.0136 11.2553 19.5505 12.1825 17.3121C13.1096 15.0737 14.6798 13.1605 16.6943 11.8145C18.7088 10.4684 21.0772 9.75 23.5 9.75V22H35.75Z"
        stroke="white" strokeWidth="4" mask="url(#path-4-outside-1_8109_58631)" />
    <path
        d="M25.25 6.25C27.0885 6.25 28.909 6.61212 30.6076 7.31569C32.3061 8.01925 33.8495 9.05049 35.1495 10.3505C36.4495 11.6505 37.4807 13.1939 38.1843 14.8924C38.8879 16.591 39.25 18.4115 39.25 20.25L25.25 20.25L25.25 6.25Z"
        fill="url(#paint2_linear_8109_58631)" />
    <defs>
        <linearGradient id="paint0_linear_8109_58631" x1="12" y1="-11.5" x2="12.125" y2="43.875"
            gradientUnits="userSpaceOnUse">
            <stop stop-color="#337BFC" />
            <stop offset="0.947917" stop-color="#001F83" />
        </linearGradient>
        <linearGradient id="paint1_linear_8109_58631" x1="23.5572" y1="8.58333" x2="16.1115" y2="52.9647"
            gradientUnits="userSpaceOnUse">
            <stop stop-color="#3F7FFE" />
            <stop offset="1" stop-color="white" />
        </linearGradient>
        <linearGradient id="paint2_linear_8109_58631" x1="24.5833" y1="13.2173" x2="49.9441" y2="17.472"
            gradientUnits="userSpaceOnUse">
            <stop stop-color="#3F7FFE" />
            <stop offset="1" stop-color="white" />
        </linearGradient>
    </defs>
</svg>