<svg width="48" height="48" viewBox="0 0 48 48" fill="none" xmlns="http://www.w3.org/2000/svg">
<path d="M15.4289 6.85717L18.8575 0H17.1432L13.7146 6.85717H15.4289Z" fill="url(#paint0_linear_8088_58608)"/>
<path d="M12.0003 6.85717L15.4289 0H1.71454C0.767845 0 0.000244141 0.767601 0.000244141 1.71429V6.85717H12.0003ZM8.5717 1.71429C9.51839 1.71429 10.286 2.48189 10.286 3.42858C10.286 4.37527 9.51839 5.14288 8.5717 5.14288C7.62501 5.14288 6.85741 4.37527 6.85741 3.42858C6.85741 2.48189 7.62501 1.71429 8.5717 1.71429ZM3.42883 1.71429C4.37552 1.71429 5.14312 2.48189 5.14312 3.42858C5.14312 4.37527 4.37552 5.14288 3.42883 5.14288C2.48214 5.14288 1.71454 4.37527 1.71454 3.42858C1.71454 2.48189 2.48214 1.71429 3.42883 1.71429Z" fill="url(#paint1_linear_8088_58608)"/>
<path d="M48.0003 6.85717V1.71429C48.0003 0.767601 47.2327 0 46.286 0H20.5716L17.1431 6.85717H48.0003Z" fill="url(#paint2_linear_8088_58608)"/>
<path d="M0.000244141 8.57153V10.2858H7.72455C8.19827 10.2858 8.5817 10.6692 8.5817 11.143V14.7265C9.77102 15.206 10.8761 15.8416 11.8798 16.6241L14.9912 14.8321C15.4022 14.5937 15.9229 14.7368 16.1606 15.1451L20.4563 22.5682C20.5711 22.7649 20.601 22.9995 20.5424 23.2195C20.4839 23.4395 20.34 23.627 20.1422 23.7403L17.0342 25.5307C17.128 26.1804 17.1739 26.8064 17.1739 27.429C17.1739 28.052 17.128 28.678 17.0342 29.3274L20.1422 31.1178C20.3396 31.2307 20.4839 31.4182 20.5424 31.6386C20.601 31.8586 20.5708 32.0932 20.4563 32.2899L16.1606 39.713C15.9253 40.1216 15.4022 40.2636 14.9912 40.026L11.8798 38.234C10.8761 39.0165 9.77141 39.6521 8.5817 40.1316V43.7143C8.5817 44.1881 8.19827 44.5715 7.72455 44.5715H0.000244141V46.2858C0.000244141 47.2325 0.767845 48.0001 1.71454 48.0001H46.2861C47.2328 48.0001 48.0004 47.2325 48.0004 46.2858V8.57135L0.000244141 8.57153ZM28.8346 31.0552C29.1978 31.3583 29.2471 31.899 28.9445 32.2632C28.7742 32.4668 28.5308 32.5713 28.2848 32.5713C28.0915 32.5713 27.8971 32.5058 27.7364 32.3731L22.5935 28.0873C22.3984 27.9239 22.2855 27.6829 22.2855 27.4284C22.2855 27.1739 22.3984 26.9329 22.5935 26.7695L27.7364 22.4837C28.1022 22.1807 28.6395 22.23 28.9444 22.5936C29.2475 22.9578 29.1981 23.4985 28.8346 23.8016L24.4819 27.4283L28.8346 31.0552ZM37.592 23.5835L32.4491 32.155C32.2884 32.4229 32.0045 32.5709 31.7133 32.5709C31.5633 32.5709 31.411 32.5315 31.2729 32.4489C30.8669 32.2051 30.7356 31.6786 30.979 31.273L36.1219 22.7015C36.3656 22.2963 36.8902 22.1643 37.2978 22.4076C37.7041 22.651 37.8358 23.1775 37.592 23.5835ZM45.9778 28.0874L40.835 32.3731C40.6743 32.5059 40.4802 32.5714 40.2866 32.5714C40.0406 32.5714 39.7968 32.4669 39.6269 32.2633C39.3239 31.899 39.3732 31.3583 39.7367 31.0553L44.0895 27.4285L39.7367 23.8018C39.3736 23.4987 39.3242 22.958 39.6269 22.5937C39.9315 22.2306 40.4692 22.1812 40.835 22.4839L45.9778 26.7696C46.173 26.933 46.2859 27.1741 46.2859 27.4286C46.2859 27.6831 46.173 27.9241 45.9778 28.0875L45.9778 28.0874Z" fill="url(#paint3_linear_8088_58608)"/>
<path d="M8.5717 27.4287C8.5717 24.5929 6.26466 22.2858 3.42883 22.2858C2.10677 22.2858 0.912149 22.8009 0.000244141 23.6236V31.2341C0.91211 32.0565 2.10677 32.5715 3.42883 32.5715C6.26466 32.5715 8.5717 30.2644 8.5717 27.4286V27.4287Z" fill="url(#paint4_linear_8088_58608)"/>
<path d="M15.2496 29.619C15.3908 28.853 15.4597 28.1374 15.4597 27.4292C15.4597 26.7209 15.3912 26.0053 15.2496 25.2393C15.1834 24.8819 15.3502 24.5218 15.6648 24.3412L18.5427 22.6839L15.1057 16.7439L12.2236 18.4038C11.9106 18.5837 11.5164 18.5504 11.239 18.3135C10.1205 17.3584 8.84162 16.6233 7.43884 16.1279C7.09636 16.0066 6.86716 15.6825 6.86716 15.3193V12.0005H0V21.5259C1.0129 20.9351 2.17421 20.572 3.42858 20.572C7.20963 20.572 10.2858 23.6481 10.2858 27.4291C10.2858 31.2102 7.20963 34.2863 3.42858 34.2863C2.17421 34.2863 1.0129 33.9232 0 33.3324V42.8577H6.86716V39.539C6.86716 39.1758 7.09636 38.8517 7.43884 38.7304C8.84162 38.2349 10.1209 37.4999 11.239 36.5448C11.516 36.3086 11.9102 36.2735 12.2236 36.4544L15.1057 38.1144L18.5427 32.1744L15.6648 30.5171C15.3499 30.3361 15.1834 29.9764 15.2496 29.619Z" fill="url(#paint5_linear_8088_58608)"/>
<defs>
<linearGradient id="paint0_linear_8088_58608" x1="19.7896" y1="3.21694" x2="7.45884" y2="3.62009" gradientUnits="userSpaceOnUse">
<stop stop-color="#3F7FFE"/>
<stop offset="1" stop-color="white" stop-opacity="0"/>
</linearGradient>
<linearGradient id="paint1_linear_8088_58608" x1="18.2254" y1="3.21694" x2="-18.4537" y2="6.81456" gradientUnits="userSpaceOnUse">
<stop stop-color="#3F7FFE"/>
<stop offset="1" stop-color="white" stop-opacity="0"/>
</linearGradient>
<linearGradient id="paint2_linear_8088_58608" x1="53.5933" y1="3.21694" x2="-17.7261" y2="17.2075" gradientUnits="userSpaceOnUse">
<stop stop-color="#3F7FFE"/>
<stop offset="1" stop-color="white" stop-opacity="0"/>
</linearGradient>
<linearGradient id="paint3_linear_8088_58608" x1="24.0003" y1="8.57135" x2="24.0003" y2="48.0001" gradientUnits="userSpaceOnUse">
<stop stop-color="#337BFC"/>
<stop offset="0.947917" stop-color="#001F83"/>
</linearGradient>
<linearGradient id="paint4_linear_8088_58608" x1="4.28597" y1="22.2858" x2="4.28597" y2="32.5715" gradientUnits="userSpaceOnUse">
<stop stop-color="#337BFC"/>
<stop offset="0.947917" stop-color="#001F83"/>
</linearGradient>
<linearGradient id="paint5_linear_8088_58608" x1="21.9037" y1="26.4768" x2="-22.5723" y2="27.6418" gradientUnits="userSpaceOnUse">
<stop stop-color="#3F7FFE"/>
<stop offset="1" stop-color="white" stop-opacity="0"/>
</linearGradient>
</defs>
</svg>
