<svg width="56" height="56" viewBox="0 0 56 56" fill="none" xmlns="http://www.w3.org/2000/svg">
    <path d="M46.5894 10.8928H20.6072L18.1965 50.5358H49.0001L46.5894 10.8928Z" fill="url(#paint0_linear_8088_57663)" />
    <mask id="path-2-outside-1_8088_57663" maskUnits="userSpaceOnUse" x="0" y="22.3572" width="38" height="32"
        fill="black">
        <rect fill="white" y="22.3572" width="38" height="32" />
        <path fill-rule="evenodd" clip-rule="evenodd"
            d="M12.8392 30.1786V27.5H25.1606V30.1786H12.8392ZM10.6964 26.4286C10.6964 25.8369 11.176 25.3572 11.7678 25.3572H26.2321C26.8238 25.3572 27.3035 25.8369 27.3035 26.4286V30.7143H31.8571L33.7321 50.8037H4L6.14286 30.7143H10.6964V26.4286Z" />
    </mask>
    <path fill-rule="evenodd" clip-rule="evenodd"
        d="M12.8392 30.1786V27.5H25.1606V30.1786H12.8392ZM10.6964 26.4286C10.6964 25.8369 11.176 25.3572 11.7678 25.3572H26.2321C26.8238 25.3572 27.3035 25.8369 27.3035 26.4286V30.7143H31.8571L33.7321 50.8037H4L6.14286 30.7143H10.6964V26.4286Z"
        fill="url(#paint1_linear_8088_57663)" />
    <path
        d="M12.8392 27.5V24.5H9.83921V27.5H12.8392ZM12.8392 30.1786H9.83921V33.1786H12.8392V30.1786ZM25.1606 27.5H28.1606V24.5H25.1606V27.5ZM25.1606 30.1786V33.1786H28.1606V30.1786H25.1606ZM27.3035 30.7143H24.3035V33.7143H27.3035V30.7143ZM31.8571 30.7143L34.8442 30.4355L34.5902 27.7143H31.8571V30.7143ZM33.7321 50.8037V53.8037H37.0252L36.7192 50.5249L33.7321 50.8037ZM4 50.8037L1.01692 50.4855L0.662983 53.8037H4V50.8037ZM6.14286 30.7143V27.7143H3.44584L3.15978 30.3961L6.14286 30.7143ZM10.6964 30.7143V33.7143H13.6964V30.7143H10.6964ZM9.83921 27.5V30.1786H15.8392V27.5H9.83921ZM25.1606 24.5H12.8392V30.5H25.1606V24.5ZM28.1606 30.1786V27.5H22.1606V30.1786H28.1606ZM12.8392 33.1786H25.1606V27.1786H12.8392V33.1786ZM11.7678 22.3572C9.51919 22.3572 7.69635 24.18 7.69635 26.4286H13.6964C13.6964 27.4937 12.8329 28.3572 11.7678 28.3572V22.3572ZM26.2321 22.3572H11.7678V28.3572H26.2321V22.3572ZM30.3035 26.4286C30.3035 24.18 28.4807 22.3572 26.2321 22.3572V28.3572C25.1669 28.3572 24.3035 27.4937 24.3035 26.4286H30.3035ZM30.3035 30.7143V26.4286H24.3035V30.7143H30.3035ZM31.8571 27.7143H27.3035V33.7143H31.8571V27.7143ZM36.7192 50.5249L34.8442 30.4355L28.8701 30.9931L30.7451 51.0824L36.7192 50.5249ZM4 53.8037H33.7321V47.8037H4V53.8037ZM3.15978 30.3961L1.01692 50.4855L6.98308 51.1218L9.12593 31.0325L3.15978 30.3961ZM10.6964 27.7143H6.14286V33.7143H10.6964V27.7143ZM7.69635 26.4286V30.7143H13.6964V26.4286H7.69635Z"
        fill="white" mask="url(#path-2-outside-1_8088_57663)" />
    <mask id="path-4-inside-2_8088_57663" fill="white">
        <rect x="26.7681" y="5" width="13.9286" height="6.96431" rx="1.07143" />
    </mask>
    <rect x="26.7681" y="5" width="13.9286" height="6.96431" rx="1.07143" stroke="#4885FE" strokeWidth="3.21429"
        mask="url(#path-4-inside-2_8088_57663)" />
    <defs>
        <linearGradient id="paint0_linear_8088_57663" x1="33.5983" y1="10.8928" x2="33.5983" y2="50.5358"
            gradientUnits="userSpaceOnUse">
            <stop stop-color="#3F7FFE" />
            <stop offset="1" stop-color="white" stop-opacity="0" />
        </linearGradient>
        <linearGradient id="paint1_linear_8088_57663" x1="18.8661" y1="25.3572" x2="18.8661" y2="50.8036"
            gradientUnits="userSpaceOnUse">
            <stop stop-color="#337BFC" />
            <stop offset="0.947917" stop-color="#001F83" />
        </linearGradient>
    </defs>
</svg>