<svg width="57" height="56" viewBox="0 0 57 56" fill="none" xmlns="http://www.w3.org/2000/svg">
    <path
        d="M49.4996 27V33.6899C49.3084 33.8673 49.0763 34.0501 48.7974 34.2367C47.7522 34.9372 46.1909 35.5969 44.194 36.1626C40.21 37.2916 34.6609 38 28.4998 38C22.3387 38 16.7895 37.2916 12.8056 36.1626C10.8087 35.5969 9.2474 34.9372 8.20212 34.2367C7.92321 34.0501 7.69118 33.8673 7.5 33.6899V27C8.71945 27.7795 10.3911 28.4569 12.3746 29.019C16.5337 30.1976 22.2352 30.9162 28.5 30.9162C34.7648 30.9162 40.4665 30.1976 44.6254 29.019C46.6089 28.457 48.2806 27.7796 49.5 27H49.4996Z"
        fill="url(#paint0_linear_8109_58660)" />
    <path fill-rule="evenodd" clip-rule="evenodd"
        d="M49.5 24.5381V14.3334C49.5 13.1011 48.7329 12.044 47.623 11.1882C46.5044 10.3263 44.932 9.58211 43.0561 8.97088C39.2964 7.74549 34.1503 7 28.5 7C22.8497 7 17.7034 7.74545 13.9439 8.97088C12.0679 9.58211 10.4956 10.3263 9.37698 11.1882C8.26706 12.0437 7.5 13.1011 7.5 14.3334V24.5381C7.69119 24.7218 7.92322 24.911 8.20212 25.1042C9.24741 25.8293 10.8087 26.5123 12.8056 27.0979C16.7896 28.2667 22.3388 29 28.4999 29C34.6611 29 40.2103 28.2667 44.1943 27.0979C46.1912 26.5122 47.7525 25.8293 48.7978 25.1042C49.0767 24.911 49.3087 24.7218 49.4999 24.5381H49.5ZM10.3053 12.3404C9.36609 13.0642 8.99983 13.7432 8.99983 14.3335C8.99983 14.9238 9.36613 15.6028 10.3053 16.3266C11.236 17.0439 12.6296 17.7216 14.4179 18.3047C17.9874 19.4682 22.9662 20.2002 28.4999 20.2002C34.0337 20.2002 39.012 19.4682 42.582 18.3047C44.3702 17.7219 45.7638 17.0439 46.6946 16.3266C47.6337 15.6027 48 14.9238 48 14.3335C48 13.7432 47.6337 13.0642 46.6946 12.3404C45.7638 11.6231 44.3702 10.9451 42.582 10.3623C39.0124 9.19876 34.0337 8.46676 28.4999 8.46676C22.9662 8.46676 17.9879 9.19879 14.4179 10.3623C12.6296 10.945 11.236 11.6231 10.3053 12.3404Z"
        fill="url(#paint1_linear_8109_58660)" />
    <path
        d="M44.6253 37.9512C46.6088 37.4081 48.2806 36.7534 49.5 36V41.1539C49.5 42.3042 48.7329 43.2914 47.623 44.0897C46.5044 44.8947 44.932 45.5895 43.0561 46.1601C39.2964 47.304 34.1503 48 28.5 48C22.8497 48 17.7034 47.3041 13.9439 46.1601C12.0679 45.5895 10.4956 44.8947 9.37698 44.0897C8.26706 43.2914 7.5 42.3042 7.5 41.1539V36C8.71946 36.7534 10.3912 37.408 12.3747 37.9512C16.5338 39.0903 22.2353 39.7847 28.5002 39.7847C34.7651 39.7847 40.4668 39.0903 44.6257 37.9512H44.6253Z"
        fill="url(#paint2_linear_8109_58660)" />
    <defs>
        <linearGradient id="paint0_linear_8109_58660" x1="28.5" y1="27" x2="28.5" y2="38"
            gradientUnits="userSpaceOnUse">
            <stop stop-color="#337BFC" />
            <stop offset="0.947917" stop-color="#001F83" />
        </linearGradient>
        <linearGradient id="paint1_linear_8109_58660" x1="28.5" y1="7" x2="28.5" y2="29" gradientUnits="userSpaceOnUse">
            <stop stop-color="#337BFC" />
            <stop offset="0.947917" stop-color="#001F83" />
        </linearGradient>
        <linearGradient id="paint2_linear_8109_58660" x1="57.1127" y1="41.6296" x2="-41.4029" y2="56.6606"
            gradientUnits="userSpaceOnUse">
            <stop stop-color="#3F7FFE" />
            <stop offset="1" stop-color="white" stop-opacity="0" />
        </linearGradient>
    </defs>
</svg>