<svg width="56" height="50" viewBox="0 0 56 50" fill="none" xmlns="http://www.w3.org/2000/svg">
    <path
        d="M55.625 7.5V2.1875C55.625 1.01562 54.5728 0 53.17 0H9.33004C8.01484 0 6.875 0.9375 6.875 2.1875V7.5H55.625ZM20.8156 3.59375H24.1474C24.7612 3.59375 25.2873 4.0625 25.2873 4.60938C25.2873 5.15625 24.7612 5.625 24.1474 5.625H20.8156C20.2018 5.625 19.6758 5.15625 19.6758 4.60938C19.6758 4.0625 20.2018 3.59375 20.8156 3.59375ZM13.1875 3.59375H16.607C17.2207 3.59375 17.7468 4.0625 17.7468 4.60938C17.7468 5.15625 17.2207 5.625 16.607 5.625H13.2751C12.6614 5.625 12.1353 5.15625 12.1353 4.60938C12.0476 4.0625 12.5738 3.59375 13.1875 3.59375Z"
        fill="url(#paint0_linear_8109_58670)" />
    <path
        d="M8.875 10C7.77043 10 6.875 10.8954 6.875 12V39.9931C6.875 41.3361 7.92526 42.5 9.3256 42.5H53.1744C54.4872 42.5 55.625 41.4256 55.625 39.9931V12C55.625 10.8954 54.7296 10 53.625 10H8.875ZM24.0292 29.5182C24.4668 29.9659 24.4668 30.6821 24.0292 31.1298C23.7667 31.3984 23.5041 31.4879 23.2415 31.4879C23.0341 31.4879 22.772 31.4321 22.5848 31.2761C22.4841 31.1923 22.4077 31.0826 22.316 30.9889L17.5189 26.0815C16.7592 25.3043 16.7592 24.0626 17.5189 23.2854L22.4538 18.237C22.8914 17.7894 23.5916 17.7894 24.0292 18.237C24.4668 18.6847 24.4668 19.401 24.0292 19.8486L20.6697 23.2854C19.91 24.0626 19.91 25.3043 20.6697 26.0815L24.0292 29.5182ZM34.7069 17.3417L29.8933 32.7414C29.7182 33.2786 29.2806 33.5472 28.843 33.5472C28.6001 33.5472 28.3584 33.4376 28.1627 33.2937C27.8081 33.0332 27.6239 32.5699 27.7385 32.1669C27.7661 32.0696 27.8079 31.9767 27.8381 31.8801L32.6063 16.6254C32.7623 16.0669 33.3354 15.7217 33.8299 15.8433C33.952 15.8733 34.07 15.9219 34.1828 15.9773C34.6683 16.2159 34.8641 16.7788 34.7069 17.3417ZM40.0458 31.1298C39.7832 31.3984 39.5206 31.4879 39.2581 31.4879C39.0506 31.4879 38.7886 31.4321 38.6014 31.2761C38.5006 31.1923 38.4196 31.0857 38.3451 30.9778C38.0378 30.5322 38.0795 29.9181 38.4704 29.5182L41.8299 26.0815C42.5896 25.3043 42.5896 24.0626 41.8299 23.2854L38.4704 19.8486C38.0328 19.401 38.0328 18.6847 38.4704 18.237C38.908 17.7894 39.6082 17.7894 40.0458 18.237L44.9807 23.2854C45.7404 24.0626 45.7404 25.3043 44.9807 26.0815L40.0458 31.1298Z"
        fill="url(#paint1_linear_8109_58670)" />
    <path
        d="M48.125 43.2252V45.6007C48.125 48.0643 46.196 50 43.741 50H3.75899C1.30396 50 -0.625 48.0643 -0.625 45.6007V18.1493C-0.625 15.6857 1.30396 13.75 3.75899 13.75H6.30181V40.3206C6.30181 42.1683 7.79236 43.664 9.63364 43.5762L48.125 43.2252Z"
        fill="url(#paint2_linear_8109_58670)" />
    <defs>
        <linearGradient id="paint0_linear_8109_58670" x1="31.25" y1="0" x2="31.25" y2="7.5"
            gradientUnits="userSpaceOnUse">
            <stop stop-color="#337BFC" />
            <stop offset="0.947917" stop-color="#001F83" />
        </linearGradient>
        <linearGradient id="paint1_linear_8109_58670" x1="31.25" y1="10" x2="31.25" y2="42.5"
            gradientUnits="userSpaceOnUse">
            <stop stop-color="#337BFC" />
            <stop offset="0.947917" stop-color="#001F83" />
        </linearGradient>
        <linearGradient id="paint2_linear_8109_58670" x1="56.9611" y1="30.7562" x2="-59.6484" y2="37.5924"
            gradientUnits="userSpaceOnUse">
            <stop stop-color="#3F7FFE" />
            <stop offset="1" stop-color="white" stop-opacity="0" />
        </linearGradient>
    </defs>
</svg>