<svg width="56" height="56" viewBox="0 0 56 56" fill="none" xmlns="http://www.w3.org/2000/svg">
    <path
        d="M32.0731 42.2904H47.2287C47.4264 42.2904 47.6159 42.2119 47.7559 42.0723C47.8956 41.9322 47.9741 41.7427 47.9741 41.5451V8.74561C47.9741 8.54795 47.8956 8.35808 47.7559 8.21841C47.6159 8.07874 47.4264 8.00024 47.2287 8.00024H32.0731C30.6697 8.00201 29.3264 8.56881 28.3459 9.57301V44.1023H28.8753C29.5489 42.9786 30.763 42.2908 32.0731 42.2908L32.0731 42.2904ZM31.2532 14.4261H43.5827C43.9943 14.4261 44.3281 14.7595 44.3281 15.1714C44.3281 15.583 43.9943 15.9168 43.5827 15.9168H31.2532C30.8416 15.9168 30.5078 15.583 30.5078 15.1714C30.5078 14.7595 30.8416 14.4261 31.2532 14.4261ZM31.2532 21.0753H43.5827C43.9943 21.0753 44.3281 21.4091 44.3281 21.8207C44.3281 22.2326 43.9943 22.566 43.5827 22.566H31.2532C30.8416 22.566 30.5078 22.2326 30.5078 21.8207C30.5078 21.4091 30.8416 21.0753 31.2532 21.0753ZM31.2532 27.7245H43.5827C43.9943 27.7245 44.3281 28.0583 44.3281 28.4702C44.3281 28.8818 43.9943 29.2156 43.5827 29.2156H31.2532C30.8416 29.2156 30.5078 28.8818 30.5078 28.4702C30.5078 28.0583 30.8416 27.7245 31.2532 27.7245ZM31.2532 34.3738L43.5827 34.3741C43.9943 34.3741 44.3281 34.7079 44.3281 35.1195C44.3281 35.5311 43.9943 35.8648 43.5827 35.8648H31.2532C30.8416 35.8648 30.5078 35.5311 30.5078 35.1195C30.5078 34.7079 30.8416 34.3741 31.2532 34.3741V34.3738Z"
        fill="url(#paint0_linear_8088_62047)" />
    <path
        d="M51.4551 12.4727H49.4648V41.5455C49.4648 42.1388 49.2289 42.7073 48.8096 43.1267C48.3902 43.5461 47.8213 43.7819 47.2283 43.7819H32.0727C31.2786 43.7865 30.5467 44.2122 30.1496 44.9L29.7171 45.6454H25.4833L25.0509 44.9C24.6538 44.2123 23.9218 43.7865 23.1277 43.7819H7.97217C7.3792 43.7819 6.81027 43.5461 6.39089 43.1267C5.97154 42.7074 5.73569 42.1388 5.73569 41.5455V12.4727H3.74537C3.33379 12.4727 3 12.8064 3 13.218V46.0184C3 46.216 3.0785 46.4056 3.21852 46.5452C3.35819 46.6852 3.54771 46.7637 3.74537 46.7637H22.4782C22.6437 47.4034 23.0164 47.9702 23.5386 48.3747C24.0609 48.7796 24.7026 48.9995 25.3631 48.9998H29.836C30.4965 48.9995 31.1383 48.7796 31.6605 48.3747C32.1828 47.9702 32.5555 47.4034 32.7209 46.7637H51.4538C51.6515 46.7637 51.841 46.6852 51.9806 46.5452C52.1207 46.4056 52.1992 46.216 52.1992 46.0184V13.218C52.1992 13.0204 52.1207 12.8308 51.9806 12.6908C51.841 12.5512 51.6515 12.4727 51.4538 12.4727H51.4551Z"
        fill="url(#paint1_linear_8088_62047)" />
    <path
        d="M7.97269 42.2906H23.1282C24.4383 42.2906 25.6525 42.9783 26.3261 44.102H26.8554V9.57276C25.8749 8.56855 24.5316 8.00181 23.1282 8H7.97266C7.56108 8 7.22729 8.33343 7.22729 8.74537V41.5448C7.22729 41.7425 7.30579 41.932 7.44546 42.072C7.58549 42.2117 7.77501 42.2902 7.97266 42.2902L7.97269 42.2906ZM11.6179 14.4253L23.9474 14.4256C24.359 14.4256 24.6928 14.7591 24.6928 15.171C24.6928 15.5826 24.359 15.9164 23.9474 15.9164H11.6179C11.2063 15.9164 10.8725 15.5826 10.8725 15.171C10.8725 14.7591 11.2063 14.4256 11.6179 14.4256V14.4253ZM11.6179 21.0745L23.9474 21.0749C24.359 21.0749 24.6928 21.4087 24.6928 21.8202C24.6928 22.2322 24.359 22.5656 23.9474 22.5656H11.6179C11.2063 22.5656 10.8725 22.2322 10.8725 21.8202C10.8725 21.4087 11.2063 21.0749 11.6179 21.0749V21.0745ZM11.6179 27.7238L23.9474 27.7241C24.359 27.7241 24.6928 28.0579 24.6928 28.4698C24.6928 28.8814 24.359 29.2152 23.9474 29.2152H11.6179C11.2063 29.2152 10.8725 28.8814 10.8725 28.4698C10.8725 28.0579 11.2063 27.7241 11.6179 27.7241V27.7238ZM11.6179 34.373L23.9474 34.3737C24.359 34.3737 24.6928 34.7075 24.6928 35.1191C24.6928 35.5306 24.359 35.8644 23.9474 35.8644H11.6179C11.2063 35.8644 10.8725 35.5306 10.8725 35.1191C10.8725 34.7075 11.2063 34.3737 11.6179 34.3737V34.373Z"
        fill="url(#paint2_linear_8088_62047)" />
    <defs>
        <linearGradient id="paint0_linear_8088_62047" x1="38.16" y1="8.00024" x2="38.16" y2="44.1023"
            gradientUnits="userSpaceOnUse">
            <stop stop-color="#337BFC" />
            <stop offset="0.947917" stop-color="#001F83" />
        </linearGradient>
        <linearGradient id="paint1_linear_8088_62047" x1="27.7144" y1="10.7333" x2="19.3703" y2="77.7248"
            gradientUnits="userSpaceOnUse">
            <stop stop-color="#3F7FFE" />
            <stop offset="1" stop-color="white" stop-opacity="0" />
        </linearGradient>
        <linearGradient id="paint2_linear_8088_62047" x1="17.0414" y1="8" x2="17.0414" y2="44.102"
            gradientUnits="userSpaceOnUse">
            <stop stop-color="#337BFC" />
            <stop offset="0.947917" stop-color="#001F83" />
        </linearGradient>
    </defs>
</svg>