<svg width="57" height="56" viewBox="0 0 57 56" fill="none" xmlns="http://www.w3.org/2000/svg">
    <path d="M19.9286 10.8571L23.3572 4H21.6429L18.2144 10.8571H19.9286Z" fill="#3F7FFE" />
    <path
        d="M16.5 10.8571L19.9286 4H6.21429C5.2676 4 4.5 4.7676 4.5 5.71429V10.8571H16.5ZM13.0714 5.71429C14.0181 5.71429 14.7857 6.48188 14.7857 7.42857C14.7857 8.37526 14.0181 9.14286 13.0714 9.14286C12.1247 9.14286 11.3571 8.37526 11.3571 7.42857C11.3571 6.48188 12.1247 5.71429 13.0714 5.71429ZM7.92857 5.71429C8.87526 5.71429 9.64286 6.48188 9.64286 7.42857C9.64286 8.37526 8.87526 9.14286 7.92857 9.14286C6.98188 9.14286 6.21429 8.37526 6.21429 7.42857C6.21429 6.48188 6.98188 5.71429 7.92857 5.71429Z"
        fill="#3F7FFE" />
    <path d="M52.5 10.8571V5.71429C52.5 4.7676 51.7324 4 50.7857 4H25.0714L21.6428 10.8571H52.5Z" fill="#3F7FFE" />
    <path
        d="M4.5 12.5714V50.2856C4.5 51.2323 5.2676 51.9999 6.21429 51.9999H50.7857C51.7324 51.9999 52.5 51.2323 52.5 50.2856V12.5714H4.5ZM18.1702 33.6012C19.2867 34.7178 19.9281 36.263 19.9281 37.8434V39.1425C19.9281 41.5065 21.8509 43.4282 24.2138 43.4282C24.6875 43.4282 25.0709 43.8116 25.0709 44.2853C25.0709 44.7591 24.6875 45.1425 24.2138 45.1425C20.9057 45.1425 18.2138 42.4506 18.2138 39.1425V37.8434C18.2138 36.7149 17.7558 35.6102 16.9584 34.8131L15.0363 32.891C14.7015 32.5562 14.7015 32.0136 15.0363 31.6788L16.9584 29.7567C17.7558 28.9604 18.2138 27.8557 18.2138 26.7272V25.4281C18.2138 22.12 20.9057 19.4281 24.2138 19.4281C24.6875 19.4281 25.0709 19.8115 25.0709 20.2852C25.0709 20.759 24.6875 21.1424 24.2138 21.1424C21.8509 21.1424 19.9281 23.0644 19.9281 25.4281V26.7272C19.9281 28.3076 19.2868 29.8527 18.1702 30.9694L16.8546 32.2853L18.1702 33.6012ZM41.9625 32.8914L40.0405 34.8135C39.243 35.6101 38.785 36.7149 38.785 37.8433V39.1425C38.785 42.4506 36.0931 45.1425 32.785 45.1425C32.3113 45.1425 31.9279 44.7591 31.9279 44.2853C31.9279 43.8116 32.3113 43.4282 32.785 43.4282C35.1479 43.4282 37.0707 41.5061 37.0707 39.1425V37.8433C37.0707 36.263 37.7121 34.7179 38.8286 33.6012L40.1446 32.2852L38.8286 30.9693C37.7121 29.8527 37.0707 28.3075 37.0707 26.7271V25.428C37.0707 23.0639 35.1479 21.1423 32.785 21.1423C32.3113 21.1423 31.9279 20.7589 31.9279 20.2851C31.9279 19.8114 32.3113 19.428 32.785 19.428C36.0931 19.428 38.785 22.1199 38.785 25.428V26.7271C38.785 27.8556 39.2431 28.9603 40.0405 29.7574L41.9625 31.6795C42.2974 32.0139 42.2974 32.5565 41.9625 32.8913V32.8914Z"
        fill="#3F7FFE" />
</svg>