<svg width="44" height="43" viewBox="0 0 44 43" fill="none" xmlns="http://www.w3.org/2000/svg">
    <path
        d="M25.0816 11.2751H19.2525V18.585H11.9426V24.4141H19.2525V31.724H25.0816V24.4141H32.3914V18.585H25.0816V11.2751Z"
        fill="url(#paint0_linear_8088_61888)" />
    <path
        d="M22.1667 0C16.4645 0 10.996 2.26516 6.96405 6.2973C2.93191 10.3291 0.666748 15.7979 0.666748 21.5C0.666748 27.2021 2.93191 32.6707 6.96405 36.7027C10.9959 40.7348 16.4647 43 22.1667 43C27.8688 43 33.3375 40.7348 37.3694 36.7027C41.4016 32.6709 43.6667 27.2021 43.6667 21.5C43.6667 15.7979 41.4016 10.3293 37.3694 6.2973C33.3376 2.26516 27.8688 0 22.1667 0ZM35.3055 25.8835C35.3055 26.2698 35.1522 26.6406 34.8786 26.9138C34.6054 27.1871 34.235 27.3406 33.8483 27.3406H28.0076V33.1814C28.0076 33.568 27.854 33.9384 27.5808 34.2117C27.3075 34.4852 26.9368 34.6385 26.5505 34.6385H17.7831C17.3968 34.6385 17.0261 34.4852 16.7528 34.2117C16.4796 33.9384 16.326 33.568 16.326 33.1814V27.3406H10.4853C10.0987 27.3406 9.72823 27.1871 9.45498 26.9138C9.18143 26.6406 9.02816 26.2698 9.02816 25.8835V17.1162C9.02816 16.7299 9.18143 16.3591 9.45498 16.0859C9.72823 15.8126 10.0987 15.6591 10.4853 15.6591H16.326V9.81832C16.326 9.43169 16.4796 9.06126 16.7528 8.78802C17.0261 8.51447 17.3968 8.3612 17.7831 8.3612H26.5505C26.9368 8.3612 27.3075 8.51447 27.5808 8.78802C27.854 9.06126 28.0076 9.43169 28.0076 9.81832V15.6591H33.8483C34.235 15.6591 34.6054 15.8126 34.8786 16.0859C35.1522 16.3591 35.3055 16.7299 35.3055 17.1162V25.8835Z"
        fill="url(#paint1_linear_8088_61888)" />
    <defs>
        <linearGradient id="paint0_linear_8088_61888" x1="22.167" y1="11.2751" x2="22.167" y2="31.724"
            gradientUnits="userSpaceOnUse">
            <stop stop-color="#337BFC" />
            <stop offset="0.947917" stop-color="#001F83" />
        </linearGradient>
        <linearGradient id="paint1_linear_8088_61888" x1="22.2671" y1="-2.04762" x2="9.19916" y2="75.8462"
            gradientUnits="userSpaceOnUse">
            <stop stop-color="#3F7FFE" />
            <stop offset="1" stop-color="white" stop-opacity="0" />
        </linearGradient>
    </defs>
</svg>