<svg width="56" height="49" viewBox="0 0 56 49" fill="none" xmlns="http://www.w3.org/2000/svg">
    <path fill-rule="evenodd" clip-rule="evenodd"
        d="M30.1151 19.9304H49.9316C50.9263 19.9304 51.7329 20.737 51.7329 21.7321V35.2432H28.3136V21.7321C28.3136 20.7371 29.1205 19.9304 30.1151 19.9304ZM36.4204 28.9379H43.6263C44.1236 28.9379 44.5269 28.5346 44.5269 28.0373V26.2356C44.5269 25.7383 44.1236 25.3349 43.6263 25.3349H36.4204C35.923 25.3349 35.5197 25.7383 35.5197 26.2356V28.0373C35.5197 28.5346 35.923 28.9379 36.4204 28.9379ZM6.69561 10.0227H21.1079C22.103 10.0227 22.9096 10.8293 22.9096 11.824V35.2433H4.89453V11.824C4.89453 10.8294 5.70095 10.0227 6.69561 10.0227ZM11.1997 19.0299H16.6039C17.1012 19.0299 17.5045 18.6266 17.5045 18.1293V16.328C17.5045 15.8303 17.1012 15.4269 16.6039 15.4269H11.1997C10.7019 15.4269 10.2986 15.8303 10.2986 16.328V18.1293C10.2986 18.6266 10.7019 19.0299 11.1997 19.0299Z"
        fill="url(#paint0_linear_8088_62027)" />
    <path
        d="M5.28595 38.4314C2.61765 38.4314 0.450928 40.7975 0.450928 43.7159C0.450928 46.6317 2.61686 49 5.28595 49H50.3806C53.0489 49 55.2156 46.6339 55.2156 43.7159C55.2156 40.8 53.0497 38.4314 50.3806 38.4314H5.28595Z"
        fill="url(#paint1_linear_8088_62027)" />
    <path
        d="M10.7793 43.5959C10.7793 44.5906 9.97262 45.3972 8.97756 45.3972C7.98291 45.3972 7.17627 44.5905 7.17627 43.5959C7.17627 42.6008 7.98293 41.7942 8.97756 41.7942C9.97265 41.7942 10.7793 42.6009 10.7793 43.5959Z"
        fill="white" />
    <path
        d="M20.147 43.5959C20.147 44.5906 19.3403 45.3972 18.3452 45.3972C17.3506 45.3972 16.5439 44.5905 16.5439 43.5959C16.5439 42.6008 17.3506 41.7942 18.3452 41.7942C19.3403 41.7942 20.147 42.6009 20.147 43.5959Z"
        fill="white" />
    <path
        d="M29.5146 43.5959C29.5146 44.5906 28.708 45.3972 27.7129 45.3972C26.7183 45.3972 25.9116 44.5905 25.9116 43.5959C25.9116 42.6008 26.7183 41.7942 27.7129 41.7942C28.708 41.7942 29.5146 42.6009 29.5146 43.5959Z"
        fill="white" />
    <path
        d="M38.8823 43.5959C38.8823 44.5906 38.0756 45.3972 37.0806 45.3972C36.0859 45.3972 35.2793 44.5905 35.2793 43.5959C35.2793 42.6008 36.086 41.7942 37.0806 41.7942C38.0757 41.7942 38.8823 42.6009 38.8823 43.5959Z"
        fill="white" />
    <path
        d="M48.25 43.5959C48.25 44.5906 47.4433 45.3972 46.4483 45.3972C45.4536 45.3972 44.647 44.5905 44.647 43.5959C44.647 42.6008 45.4536 41.7942 46.4483 41.7942C47.4434 41.7942 48.25 42.6009 48.25 43.5959Z"
        fill="white" />
    <path
        d="M33.7178 5.46841C32.5113 5.7786 31.3693 6.40623 30.4242 7.3513C27.8419 9.93308 27.6291 13.9873 29.7854 16.8122C30.0716 17.1869 30.6074 17.2592 30.9825 16.9729C31.0129 16.9498 31.0415 16.9246 31.0684 16.8977L32.4006 15.5655C32.7086 15.2574 32.7522 14.7729 32.504 14.4153C32.4754 14.3743 32.451 14.3367 32.4301 14.3017C31.597 12.917 31.7777 11.0931 32.9718 9.89892C34.3787 8.4916 36.6603 8.4916 38.0671 9.89892C39.248 11.0798 39.4377 12.8773 38.6362 14.256C38.6089 14.303 38.5751 14.3547 38.5354 14.4119C38.2855 14.7699 38.3286 15.2553 38.6371 15.5642L39.9424 16.869C40.2893 17.2164 40.8524 17.2164 41.1997 16.869C41.2292 16.84 41.2561 16.8083 41.2813 16.7754C43.4077 13.9523 43.1856 9.92204 40.6148 7.3513C39.6698 6.40621 38.5277 5.77859 37.3208 5.46841V0.900634C37.3208 0.403319 36.9179 0 36.4202 0H34.6189C34.1211 0 33.7178 0.403319 33.7178 0.900634V5.46841Z"
        fill="url(#paint2_linear_8088_62027)" />
    <defs>
        <linearGradient id="paint0_linear_8088_62027" x1="28.3137" y1="10.0227" x2="28.3137" y2="35.2433"
            gradientUnits="userSpaceOnUse">
            <stop stop-color="#337BFC" />
            <stop offset="0.947917" stop-color="#001F83" />
        </linearGradient>
        <linearGradient id="paint1_linear_8088_62027" x1="27.8333" y1="38.4314" x2="27.8333" y2="53.5568"
            gradientUnits="userSpaceOnUse">
            <stop stop-color="#3F7FFE" />
            <stop offset="1" stop-color="white" stop-opacity="0" />
        </linearGradient>
        <linearGradient id="paint2_linear_8088_62027" x1="35.5194" y1="-5.56818" x2="35.9124" y2="39.0378"
            gradientUnits="userSpaceOnUse">
            <stop stop-color="#3F7FFE" />
            <stop offset="1" stop-color="white" stop-opacity="0" />
        </linearGradient>
    </defs>
</svg>