<svg width="56" height="56" viewBox="0 0 56 56" fill="none" xmlns="http://www.w3.org/2000/svg">
    <path
        d="M22.8048 32.2863L26.7368 34.9728L26.7242 18.0166L20.5356 21.0514V27.9831C20.5356 29.4752 21.571 31.4462 22.8048 32.2869L22.8048 32.2863Z"
        fill="url(#paint0_linear_8088_61996)" />
    <path
        d="M32.4361 32.2862C33.6698 31.445 34.703 29.4745 34.703 27.9823V21.0606L28.4739 17.9978L28.4987 34.9748L32.4361 32.2862Z"
        fill="url(#paint1_linear_8088_61996)" />
    <path
        d="M52.1148 27.5045C52.6036 27.5045 53.0002 27.1078 53.0002 26.6191C53.0002 26.1303 52.6036 25.7336 52.1148 25.7336H47.8575V17.6383H52.1148C52.6036 17.6383 53.0002 17.2417 53.0002 16.7529C53.0002 16.2641 52.6036 15.8675 52.1148 15.8675H47.8575V11.0153C47.8648 9.78384 47.3787 8.60112 46.5082 7.73018C45.6372 6.85966 44.4545 6.37363 43.2231 6.3808H38.3709V0.88542C38.3709 0.396624 37.9742 0 37.4854 0C36.9967 0 36.6 0.396636 36.6 0.88542V6.3808H28.5047V0.88542C28.5047 0.396624 28.1081 0 27.6193 0C27.1305 0 26.7339 0.396636 26.7339 0.88542V6.3808H18.6386V0.88542C18.6386 0.396624 18.2419 0 17.7531 0C17.2644 0 16.8677 0.396636 16.8677 0.88542V6.3808H12.0155C10.7841 6.37358 9.60136 6.85965 8.73042 7.73018C7.85991 8.60114 7.37388 9.78384 7.38105 11.0153V15.8675H2.88566C2.39687 15.8675 2.00024 16.2641 2.00024 16.7529C2.00024 17.2417 2.39688 17.6383 2.88566 17.6383H7.38105V25.7336H2.88566C2.39687 25.7336 2.00024 26.1303 2.00024 26.6191C2.00024 27.1078 2.39688 27.5045 2.88566 27.5045H7.38105V35.5998H2.88566C2.39687 35.5998 2.00024 35.9964 2.00024 36.4852C2.00024 36.974 2.39688 37.3706 2.88566 37.3706H7.38105V42.2228C7.37382 43.4543 7.8599 44.637 8.73042 45.5079C9.60138 46.3784 10.7841 46.8645 12.0155 46.8573H16.8677V51.1146C16.8677 51.6034 17.2644 52 17.7531 52C18.2419 52 18.6386 51.6034 18.6386 51.1146V46.8573H26.7339V51.1146C26.7339 51.6034 27.1305 52 27.6193 52C28.1081 52 28.5047 51.6034 28.5047 51.1146V46.8573H36.6V51.1146C36.6 51.6034 36.9967 52 37.4854 52C37.9742 52 38.3709 51.6034 38.3709 51.1146V46.8573H43.2231C44.4545 46.8645 45.6372 46.3784 46.5082 45.5079C47.3787 44.637 47.8647 43.4543 47.8575 42.2228V37.3706H52.1148C52.6036 37.3706 53.0002 36.974 53.0002 36.4852C53.0002 35.9964 52.6036 35.5998 52.1148 35.5998H47.8575V27.5045H52.1148ZM41.786 39.9007C41.786 40.1356 41.693 40.3606 41.5267 40.5268C41.3605 40.6931 41.1355 40.7861 40.9006 40.7861H14.4648C13.976 40.7861 13.5794 40.3895 13.5794 39.9007V13.4649C13.5794 12.9761 13.976 12.5795 14.4648 12.5795H40.9006C41.3894 12.5795 41.786 12.9761 41.786 13.4649L41.786 39.9007Z"
        fill="url(#paint2_linear_8088_61996)" />
    <path
        d="M15.3501 38.8874H39.8893V14.3481H15.3501V38.8874ZM18.7653 20.4983C18.7612 20.1617 18.9496 19.8527 19.2509 19.7032L27.2275 15.7911C27.4728 15.6705 27.7601 15.6705 28.0049 15.7911L35.9872 19.7141H35.9877C36.2886 19.8641 36.4774 20.173 36.4738 20.5091V27.9819C36.4738 30.05 35.1443 32.583 33.4344 33.7489L28.1196 37.3805C27.8197 37.586 27.4249 37.586 27.1253 37.3805L21.8051 33.7489C20.0952 32.5834 18.7653 30.0505 18.7653 27.9824L18.7653 20.4983Z"
        fill="url(#paint3_linear_8088_61996)" />
    <defs>
        <linearGradient id="paint0_linear_8088_61996" x1="23.6362" y1="18.0166" x2="23.6362" y2="34.9728"
            gradientUnits="userSpaceOnUse">
            <stop stop-color="#337BFC" />
            <stop offset="0.947917" stop-color="#001F83" />
        </linearGradient>
        <linearGradient id="paint1_linear_8088_61996" x1="31.5884" y1="17.9978" x2="31.5884" y2="34.9748"
            gradientUnits="userSpaceOnUse">
            <stop stop-color="#337BFC" />
            <stop offset="0.947917" stop-color="#001F83" />
        </linearGradient>
        <linearGradient id="paint2_linear_8088_61996" x1="27.6193" y1="-2.47619" x2="11.5238" y2="91.619"
            gradientUnits="userSpaceOnUse">
            <stop stop-color="#3F7FFE" />
            <stop offset="1" stop-color="white" stop-opacity="0" />
        </linearGradient>
        <linearGradient id="paint3_linear_8088_61996" x1="27.6197" y1="14.3481" x2="27.6197" y2="38.8874"
            gradientUnits="userSpaceOnUse">
            <stop stop-color="#337BFC" />
            <stop offset="0.947917" stop-color="#001F83" />
        </linearGradient>
    </defs>
</svg>