<svg width="52" height="40" viewBox="0 0 52 40" fill="none" xmlns="http://www.w3.org/2000/svg">
    <path
        d="M19.4951 33.6228C19.4951 37.145 16.6404 40 13.1184 40C9.59636 40 6.74121 37.1449 6.74121 33.6228C6.74121 30.1008 9.59636 27.2461 13.1184 27.2461C16.6404 27.2461 19.4951 30.1008 19.4951 33.6228Z"
        fill="url(#paint0_linear_8088_61870)" />
    <path
        d="M47.126 33.6228C47.126 37.145 44.2708 40 40.7488 40C37.2271 40 34.3721 37.1449 34.3721 33.6228C34.3721 30.1008 37.2272 27.2461 40.7488 27.2461C44.2709 27.2461 47.126 30.1008 47.126 33.6228Z"
        fill="url(#paint1_linear_8088_61870)" />
    <path
        d="M51.3924 16.2462C51.3924 15.6934 51.1372 15.1622 50.7547 14.7157L42.6347 6.63802C42.2307 6.2128 41.6782 6 41.1042 6H32.2612C31.0919 6 30.1355 6.95646 30.1355 8.12572V22.9837H2.45946C1.29016 22.9837 0.33374 23.9402 0.33374 25.1094V29.3609C0.33374 30.5302 1.2902 31.4866 2.45946 31.4866H4.88283C5.83929 27.8304 9.1767 25.1311 13.1093 25.1311C17.063 25.1311 20.3789 27.8308 21.3357 31.4866H32.5164C33.4729 27.8304 36.8103 25.1311 40.7429 25.1311C44.6967 25.1311 48.0125 27.8308 48.9693 31.4866H49.2669C50.4146 31.4866 51.3926 30.5513 51.3926 29.3609L51.3924 16.2462ZM47.1409 18.8392H34.387V10.2514H40.2537L47.1409 17.1174V18.8392Z"
        fill="url(#paint2_linear_8088_61870)" />
    <path
        d="M16.7752 0C15.9786 0 15.333 1.17306 15.333 2.62033V18.3803C15.333 19.827 15.9786 21 16.7752 21H26.8912C27.6878 21 28.333 19.8269 28.333 18.3803V2.62033C28.333 1.1737 27.6874 0 26.8912 0H16.7752Z"
        fill="url(#paint3_linear_8088_61870)" />
    <path
        d="M0.333252 18.3803C0.333252 19.827 0.978886 21 1.77542 21H11.8915C12.688 21 13.3333 19.8269 13.3333 18.3803V2.62033C13.3333 1.1737 12.6876 0 11.8915 0H1.77542C0.978886 0 0.333252 1.17306 0.333252 2.62033V18.3803Z"
        fill="url(#paint4_linear_8088_61870)" />
    <defs>
        <linearGradient id="paint0_linear_8088_61870" x1="13.1182" y1="27.2461" x2="13.1182" y2="40"
            gradientUnits="userSpaceOnUse">
            <stop stop-color="#337BFC" />
            <stop offset="0.947917" stop-color="#001F83" />
        </linearGradient>
        <linearGradient id="paint1_linear_8088_61870" x1="40.749" y1="27.2461" x2="40.749" y2="40"
            gradientUnits="userSpaceOnUse">
            <stop stop-color="#337BFC" />
            <stop offset="0.947917" stop-color="#001F83" />
        </linearGradient>
        <linearGradient id="paint2_linear_8088_61870" x1="25.8632" y1="6" x2="25.8632" y2="31.4866"
            gradientUnits="userSpaceOnUse">
            <stop stop-color="#337BFC" />
            <stop offset="0.947917" stop-color="#001F83" />
        </linearGradient>
        <linearGradient id="paint3_linear_8088_61870" x1="21.833" y1="0" x2="21.833" y2="30.0544"
            gradientUnits="userSpaceOnUse">
            <stop stop-color="#3F7FFE" />
            <stop offset="1" stop-color="white" stop-opacity="0" />
        </linearGradient>
        <linearGradient id="paint4_linear_8088_61870" x1="6.83325" y1="0" x2="6.83325" y2="30.0544"
            gradientUnits="userSpaceOnUse">
            <stop stop-color="#3F7FFE" />
            <stop offset="1" stop-color="white" stop-opacity="0" />
        </linearGradient>
    </defs>
</svg>