<svg width="50" height="41" viewBox="0 0 50 41" fill="none" xmlns="http://www.w3.org/2000/svg">
    <path
        d="M49.0469 16.2998C43.8718 20.0731 32.6589 20.6122 25.5431 19.6423C24.249 21.3672 22.5242 22.8766 20.5835 23.9548C32.0118 27.5127 49.0468 24.3861 49.0468 20.2891L49.0469 16.2998Z"
        fill="url(#paint0_linear_8088_62073)" />
    <path
        d="M49.0468 35.3841V31.3948C42.1463 36.4621 22.2011 36.4621 15.3013 31.3948V35.3841C15.3008 42.1763 49.0468 42.1763 49.0468 35.3841Z"
        fill="url(#paint1_linear_8088_62073)" />
    <path
        d="M49.0468 8.86133C44.4108 12.3115 34.8152 12.9583 28.6701 12.527C28.4547 14.3601 27.8075 16.0849 26.9453 17.7021C37.8344 18.9962 49.0476 15.9773 49.0476 12.8506L49.0468 8.86133Z"
        fill="url(#paint2_linear_8088_62073)" />
    <path
        d="M25.4351 0.558594C27.6989 3.36197 28.8852 6.91989 28.7776 10.3697C39.3436 11.1241 49.0475 8.21344 49.0475 5.30231C49.0475 3.14608 42.6862 0.127197 32.2288 0.127197C29.8567 0.127197 27.5923 0.234908 25.4361 0.55853L25.4351 0.558594Z"
        fill="url(#paint3_linear_8088_62073)" />
    <path
        d="M49.0468 27.8362V23.8469C43.009 28.2675 26.4058 29.022 17.6724 25.2486C16.8097 25.464 16.4866 25.5722 15.3003 25.7877V27.8361C15.3003 34.6283 49.0471 34.6283 49.0471 27.8361L49.0468 27.8362Z"
        fill="url(#paint4_linear_8088_62073)" />
    <path
        d="M17.7973 31.4562V31.0086L17.3524 30.9592C15.3703 30.7392 13.6781 30.0454 12.0971 28.8691C11.908 28.7284 11.8628 28.4366 12.0423 28.2185L12.6513 27.479C12.8212 27.2727 13.1471 27.2251 13.3982 27.4052C14.6405 28.2963 15.9114 28.9135 17.2077 29.1495L17.7973 29.2569V28.6576V23.7261V23.3319L17.4139 23.2399C15.7532 22.8414 14.45 22.3943 13.5604 21.6857C12.7089 21.0074 12.1994 20.0585 12.1994 18.5283C12.1994 17.1358 12.7401 16.0052 13.6332 15.2014C14.5326 14.392 15.815 13.8926 17.3181 13.83L17.7973 13.8101V13.3305V12.7976C17.7973 12.632 17.9315 12.4977 18.0971 12.4977C18.2627 12.4977 18.397 12.632 18.397 12.7976V13.3305V13.7961L18.8614 13.8292C20.31 13.9326 21.6841 14.3756 23.0602 15.1034C23.2851 15.2223 23.3687 15.5322 23.1923 15.7764L22.6859 16.4775C22.5301 16.6932 22.1885 16.7749 21.8853 16.6057C20.9556 16.0867 19.9215 15.7403 18.9517 15.6327L18.3965 15.5711V16.1297V20.928V21.428H18.8965H18.9703C20.606 21.8234 21.9228 22.2688 22.8354 22.9869C23.7201 23.683 24.2606 24.6651 24.2606 26.259C24.2606 27.7135 23.6904 28.8403 22.7697 29.6274C21.8391 30.4229 20.5212 30.8942 19.0089 30.9572L18.5295 30.9772L18.5297 31.457L18.53 32.4556C18.53 32.658 18.366 32.8221 18.1636 32.8221C17.9613 32.8221 17.7973 32.6581 17.7973 32.4558V31.4562ZM34.9881 24.1778C35.539 19.4786 33.6715 14.8101 30.478 11.3264C27.2825 7.8404 22.7228 5.5 17.8309 5.5C8.35812 5.5 0.670898 13.1877 0.670898 22.66C0.670898 32.1309 8.35645 39.8178 17.8269 39.8199C26.7567 39.9552 34.1626 33.0879 34.9881 24.1778Z"
        fill="url(#paint5_linear_8088_62073)" stroke="white" />
    <path
        d="M18.8975 24.1255V28.7907C19.697 28.6575 20.3633 28.5244 20.8966 28.1243C21.4299 27.7242 21.563 27.1916 21.563 26.6584C21.563 26.1252 21.4298 25.592 21.0298 25.1925C20.6297 24.7919 19.8301 24.5256 18.8975 24.1255Z"
        fill="url(#paint6_linear_8088_62073)" />
    <path
        d="M14.7646 18.2618C14.7646 18.795 14.8978 19.3282 15.2979 19.5945C15.6979 19.9946 16.2305 20.2609 17.297 20.5272V16.1289C16.4975 16.2621 15.9643 16.3952 15.4311 16.7953C15.0316 17.1953 14.7646 17.7286 14.7646 18.2618Z"
        fill="url(#paint7_linear_8088_62073)" />
    <defs>
        <linearGradient id="paint0_linear_8088_62073" x1="52.7426" y1="20.6621" x2="23.6394" y2="37.4524"
            gradientUnits="userSpaceOnUse">
            <stop stop-color="#3F7FFE" />
            <stop offset="1" stop-color="white" stop-opacity="0" />
        </linearGradient>
        <linearGradient id="paint1_linear_8088_62073" x1="53.4282" y1="35.6985" x2="22.369" y2="57.2318"
            gradientUnits="userSpaceOnUse">
            <stop stop-color="#3F7FFE" />
            <stop offset="1" stop-color="white" stop-opacity="0" />
        </linearGradient>
        <linearGradient id="paint2_linear_8088_62073" x1="51.9173" y1="13.1956" x2="26.8853" y2="24.4822"
            gradientUnits="userSpaceOnUse">
            <stop stop-color="#3F7FFE" />
            <stop offset="1" stop-color="white" stop-opacity="0" />
        </linearGradient>
        <linearGradient id="paint3_linear_8088_62073" x1="52.1133" y1="5.03727" x2="24.8615" y2="16.6249"
            gradientUnits="userSpaceOnUse">
            <stop stop-color="#3F7FFE" />
            <stop offset="1" stop-color="white" stop-opacity="0" />
        </linearGradient>
        <linearGradient id="paint4_linear_8088_62073" x1="53.4287" y1="28.1506" x2="22.3693" y2="49.6851"
            gradientUnits="userSpaceOnUse">
            <stop stop-color="#3F7FFE" />
            <stop offset="1" stop-color="white" stop-opacity="0" />
        </linearGradient>
        <linearGradient id="paint5_linear_8088_62073" x1="17.8774" y1="6" x2="17.8774" y2="39.3219"
            gradientUnits="userSpaceOnUse">
            <stop stop-color="#337BFC" />
            <stop offset="0.947917" stop-color="#001F83" />
        </linearGradient>
        <linearGradient id="paint6_linear_8088_62073" x1="20.2302" y1="24.1255" x2="20.2302" y2="28.7907"
            gradientUnits="userSpaceOnUse">
            <stop stop-color="#337BFC" />
            <stop offset="0.947917" stop-color="#001F83" />
        </linearGradient>
        <linearGradient id="paint7_linear_8088_62073" x1="16.0308" y1="16.1289" x2="16.0308" y2="20.5272"
            gradientUnits="userSpaceOnUse">
            <stop stop-color="#337BFC" />
            <stop offset="0.947917" stop-color="#001F83" />
        </linearGradient>
    </defs>
</svg>