<svg width="30" height="30" viewBox="0 0 30 30" fill="none" xmlns="http://www.w3.org/2000/svg">
    <path fill-rule="evenodd" clip-rule="evenodd"
        d="M16.7747 13.8429C17.563 12.507 18.0153 10.9492 18.0153 9.28574C18.0153 4.32645 13.995 0.306152 9.03574 0.306152C4.07645 0.306152 0.0561523 4.32645 0.0561523 9.28574C0.0561523 10.9492 0.508464 12.507 1.29681 13.8429C2.85878 11.1961 5.7399 9.42042 9.03574 9.42042C12.3316 9.42042 15.2127 11.1961 16.7747 13.8429Z"
        fill="white" />
    <path fill-rule="evenodd" clip-rule="evenodd"
        d="M15.9745 17.1593C17.3104 17.9477 18.8682 18.4 20.5316 18.4C25.4909 18.4 29.5112 14.3797 29.5112 9.42039C29.5112 4.4611 25.4909 0.440796 20.5316 0.440796C18.8682 0.440795 17.3104 0.893107 15.9745 1.68145C18.6213 3.24342 20.397 6.12454 20.397 9.42039C20.397 12.7162 18.6213 15.5974 15.9745 17.1593Z"
        fill="#509FED" />
    <path fill-rule="evenodd" clip-rule="evenodd"
        d="M12.7253 16.3593C11.937 17.6951 11.4847 19.253 11.4847 20.9164C11.4847 25.8757 15.505 29.896 20.4643 29.896C25.4235 29.896 29.4438 25.8757 29.4438 20.9164C29.4438 19.253 28.9915 17.6952 28.2032 16.3593C26.6412 19.0061 23.7601 20.7817 20.4643 20.7817C17.1684 20.7817 14.2873 19.0061 12.7253 16.3593Z"
        fill="white" />
    <path fill-rule="evenodd" clip-rule="evenodd"
        d="M13.5929 13.1101C12.257 12.3217 10.6992 11.8694 9.03574 11.8694C4.07645 11.8694 0.0561517 15.8897 0.056152 20.849C0.0561522 25.8083 4.07645 29.8286 9.03574 29.8286C10.6992 29.8286 12.257 29.3763 13.5929 28.588C10.9461 27.026 9.17042 24.1449 9.17042 20.849C9.17042 17.5532 10.9461 14.6721 13.5929 13.1101Z"
        fill="#4D9DEB" />
</svg>