<svg width="53" height="52" viewBox="0 0 53 52" fill="none" xmlns="http://www.w3.org/2000/svg">
    <path
        d="M17.6496 14.5864C16.9011 14.5864 16.1832 14.8837 15.6539 15.413C15.125 15.9423 14.8273 16.6603 14.8273 17.4083V51.9967H11.9844V12.9122C11.9749 12.4146 11.7038 11.9589 11.2709 11.7128C10.8385 11.4664 10.3081 11.4664 9.87525 11.7128C9.44244 11.9589 9.17133 12.4145 9.16175 12.9122V51.9949H6.40873V25.3463C6.40873 24.8424 6.13946 24.3765 5.70297 24.1245C5.26647 23.8725 4.72868 23.8725 4.29218 24.1245C3.85531 24.3764 3.58641 24.8424 3.58641 25.3463V51.9949H0.667236V10.0531L21.2732 0V14.586L17.6496 14.5864ZM32.0565 0.000697807V14.5867H35.6808H35.6804C36.4289 14.5867 37.1468 14.8839 37.6761 15.4133C38.2051 15.9426 38.5027 16.6605 38.5027 17.4086V51.997H41.3486L41.3483 12.9125C41.3578 12.4148 41.6289 11.9592 42.0617 11.7131C42.4946 11.4667 43.0246 11.4667 43.4574 11.7131C43.8903 11.9592 44.1614 12.4148 44.1709 12.9125V51.9951H46.9218L46.9214 25.3466C46.9214 24.8427 47.1907 24.3767 47.6272 24.1248C48.0637 23.8728 48.6015 23.8728 49.038 24.1248C49.4748 24.3767 49.7437 24.8427 49.7437 25.3466V51.9951H52.6629V10.0534L32.0565 0.000697807Z"
        fill="url(#paint0_linear_8088_61968)" />
    <path fill-rule="evenodd" clip-rule="evenodd"
        d="M18.0005 19.3333C18.0005 18.2287 18.8959 17.3333 20.0005 17.3333H34.5719C35.6765 17.3333 36.5719 18.2287 36.5719 19.3333V51.9999H18.0005V19.3333ZM21.6667 20.9999C21.6667 20.4476 22.1145 19.9999 22.6667 19.9999H32.6667C33.219 19.9999 33.6667 20.4476 33.6667 20.9999C33.6667 21.5522 33.219 21.9999 32.6667 21.9999H22.6667C22.1145 21.9999 21.6667 21.5522 21.6667 20.9999ZM22.6667 23.9999C22.1145 23.9999 21.6667 24.4476 21.6667 24.9999C21.6667 25.5522 22.1145 25.9999 22.6667 25.9999H32.6667C33.219 25.9999 33.6667 25.5522 33.6667 24.9999C33.6667 24.4476 33.219 23.9999 32.6667 23.9999H22.6667ZM21.6667 28.9999C21.6667 28.4476 22.1145 27.9999 22.6667 27.9999H32.6667C33.219 27.9999 33.6667 28.4476 33.6667 28.9999C33.6667 29.5522 33.219 29.9999 32.6667 29.9999H22.6667C22.1145 29.9999 21.6667 29.5522 21.6667 28.9999ZM22.6667 31.9999C22.1145 31.9999 21.6667 32.4476 21.6667 32.9999C21.6667 33.5522 22.1145 33.9999 22.6667 33.9999H32.6667C33.219 33.9999 33.6667 33.5522 33.6667 32.9999C33.6667 32.4476 33.219 31.9999 32.6667 31.9999H22.6667Z"
        fill="url(#paint1_linear_8088_61968)" />
    <defs>
        <linearGradient id="paint0_linear_8088_61968" x1="26.6651" y1="0" x2="27.08" y2="70.5714"
            gradientUnits="userSpaceOnUse">
            <stop stop-color="#3F7FFE" />
            <stop offset="1" stop-color="white" stop-opacity="0" />
        </linearGradient>
        <linearGradient id="paint1_linear_8088_61968" x1="26.7036" y1="8.49533" x2="26.8101" y2="51.9999"
            gradientUnits="userSpaceOnUse">
            <stop stop-color="#337BFC" />
            <stop offset="0.947917" stop-color="#001F83" />
        </linearGradient>
    </defs>
</svg>