<svg width="36" height="40" viewBox="0 0 36 40" fill="none" xmlns="http://www.w3.org/2000/svg">
    <path
        d="M35.2 28.2651L31.3009 21.0665V13.5714C31.3009 6.08812 25.2127 0 17.7294 0C10.2461 0 4.158 6.08812 4.158 13.5714V21.0665L0.258719 28.265C0.0818898 28.5914 -0.00710888 28.9582 0.000443605 29.3293C0.00799609 29.7005 0.111841 30.0633 0.301802 30.3822C0.491763 30.7012 0.761324 30.9653 1.08407 31.1487C1.40682 31.3322 1.77169 31.4286 2.14291 31.4286H9.90497C9.88372 31.6639 9.8722 31.9018 9.8722 32.1429C9.8722 34.2267 10.7 36.2252 12.1735 37.6987C13.647 39.1722 15.6455 40 17.7293 40C19.8132 40 21.8117 39.1722 23.2852 37.6987C24.7587 36.2252 25.5865 34.2267 25.5865 32.1429C25.5865 31.9018 25.575 31.6639 25.5537 31.4286H33.3158C33.687 31.4285 34.0518 31.3321 34.3745 31.1486C34.6972 30.9652 34.9667 30.7011 35.1566 30.3821C35.3465 30.0632 35.4504 29.7004 35.4579 29.3293C35.4655 28.9582 35.3765 28.5915 35.1997 28.2651H35.2ZM22.7294 32.1429C22.73 32.83 22.5889 33.5098 22.315 34.14C22.0411 34.7702 21.6403 35.3371 21.1375 35.8055C20.6347 36.2738 20.0408 36.6335 19.3928 36.8621C18.7449 37.0907 18.0567 37.1833 17.3713 37.1341C16.686 37.0849 16.0181 36.8949 15.4095 36.5761C14.8008 36.2573 14.2643 35.8164 13.8336 35.2811C13.4029 34.7457 13.0872 34.1273 12.9061 33.4644C12.7251 32.8016 12.6826 32.1086 12.7813 31.4286H22.6775C22.7118 31.6651 22.7292 31.9038 22.7294 32.1429ZM3.34211 28.5714L7.01515 21.7906V13.5714C7.01515 10.7298 8.14397 8.0046 10.1533 5.99528C12.1626 3.98597 14.8878 2.85714 17.7294 2.85714C20.571 2.85714 23.2963 3.98597 25.3056 5.99528C27.3149 8.0046 28.4437 10.7298 28.4437 13.5714V21.7906L32.1166 28.5714H3.34211Z"
        fill="black" />
</svg>