<svg width="137" height="32" viewBox="0 0 137 32" fill="none" xmlns="http://www.w3.org/2000/svg">
    <g clip-path="url(#clip0_8069_59503)">
        <path
            d="M50.0647 22.7741C49.0273 24.2826 47.6041 25.0369 45.7949 25.0369C44.4197 25.0369 43.3032 24.6637 42.4455 23.9174C41.5878 23.171 41.0742 22.1176 40.9047 20.7572C40.8165 19.9007 40.7786 19.0398 40.7912 18.1789V9.95882L44.8338 9.56189V18.7014C44.8338 19.2736 44.8434 19.6258 44.8626 19.7581C44.9063 19.9736 44.9722 20.1839 45.0593 20.3857C45.3983 21.071 46.0576 21.4137 47.0374 21.4137C47.4173 21.4261 47.7955 21.3568 48.1464 21.2105C48.4973 21.0642 48.8127 20.8443 49.0714 20.5655C49.5991 20.0001 49.863 19.2532 49.863 18.3248V9.95882L53.9023 9.56189V24.4432L50.0579 24.8384L50.0647 22.7741Z"
            fill="#101828" />
        <path
            d="M58.6008 29.7168V10.0079L62.474 9.49906V11.7398C63.0639 10.9972 63.806 10.3899 64.6504 9.95875C65.4757 9.5856 66.374 9.40188 67.2794 9.42104C69.3914 9.42104 71.1306 10.1612 72.4968 11.6414C73.863 13.1217 74.5461 14.9938 74.5461 17.2578C74.5461 19.4833 73.8613 21.3458 72.4917 22.8453C71.8575 23.5664 71.0743 24.1409 70.1962 24.529C69.3182 24.9171 68.3663 25.1095 67.4066 25.0928C65.5364 25.0928 63.9402 24.3668 62.6181 22.9148V29.4081C62.6184 29.5439 62.5682 29.675 62.4774 29.7759C62.3866 29.8769 62.2615 29.9404 62.1265 29.9543L59.2093 30.263C59.1327 30.2714 59.0551 30.2634 58.9817 30.2398C58.9083 30.2161 58.8407 30.1773 58.7833 30.1258C58.7259 30.0743 58.68 30.0112 58.6486 29.9407C58.6171 29.8703 58.6009 29.794 58.6008 29.7168ZM66.5675 13.0934C66.0391 13.0801 65.5139 13.179 65.0266 13.3836C64.5392 13.5883 64.1008 13.8941 63.7402 14.2808C63.3671 14.6725 63.0752 15.1342 62.8811 15.6393C62.6871 16.1444 62.5948 16.6829 62.6096 17.2238C62.5948 17.7645 62.687 18.3028 62.8811 18.8076C63.0751 19.3124 63.3671 19.7738 63.7402 20.1652C64.1114 20.5418 64.5537 20.8409 65.0414 21.045C65.5291 21.2492 66.0524 21.3543 66.5811 21.3543C67.1097 21.3543 67.6331 21.2492 68.1208 21.045C68.6085 20.8409 69.0507 20.5418 69.422 20.1652C69.8026 19.7779 70.1015 19.3179 70.3007 18.8126C70.4999 18.3072 70.5953 17.7669 70.5814 17.2238C70.5954 16.6805 70.4999 16.14 70.3008 15.6343C70.1016 15.1287 69.8027 14.6684 69.422 14.2808C69.055 13.8971 68.6124 13.5939 68.1222 13.3903C67.632 13.1868 67.1049 13.0875 66.5743 13.0985L66.5675 13.0934Z"
            fill="#101828" />
        <path
            d="M76.8921 12.9577L77.4854 9.95875H78.5888V7.36856L82.6569 5.56543V9.95875H86.047L85.5147 12.9577H82.6586V19.1389C82.6647 19.3903 82.6931 19.6406 82.7434 19.887C83.0078 20.9047 83.7146 21.4136 84.8639 21.4136C85.2449 21.4114 85.6244 21.3641 85.9944 21.2728L85.4571 24.8095C84.9892 24.881 84.5168 24.9184 84.0435 24.9215C82.2162 24.9215 80.8602 24.4782 79.9754 23.5916C79.4592 23.1148 79.0784 22.5096 78.8719 21.8377C78.6832 21.1976 78.5894 20.2268 78.5905 18.9252V12.9577H76.8921Z"
            fill="#101828" />
        <path
            d="M102.928 13.75L93.227 20.1143C94.1694 21.0575 95.2249 21.529 96.3933 21.529C97.8816 21.529 99.267 20.9071 100.55 19.6631L102.753 22.2669C102.546 22.4738 102.354 22.6576 102.175 22.8182C101.997 22.9788 101.803 23.1343 101.595 23.2847C100.008 24.4555 98.0801 25.0712 96.1086 25.0369C93.7898 25.0369 91.8484 24.2934 90.2844 22.8063C88.7205 21.3192 87.9385 19.4534 87.9385 17.2086C87.9385 14.9684 88.6832 13.1139 90.1725 11.6449C91.6619 10.1759 93.518 9.44089 95.7407 9.43975C97.1191 9.41087 98.4786 9.76304 99.6698 10.4575C100.806 11.1428 101.891 12.2403 102.928 13.75ZM91.8269 17.8922L98.268 13.6651C97.4375 12.9866 96.5611 12.6474 95.639 12.6474C95.1071 12.6359 94.5788 12.7373 94.0889 12.9449C93.5989 13.1525 93.1585 13.4615 92.7965 13.8517C92.4202 14.246 92.1254 14.7107 91.9291 15.2192C91.7327 15.7278 91.6387 16.2701 91.6523 16.8151C91.6671 17.1799 91.7257 17.5415 91.8269 17.8922Z"
            fill="#101828" />
        <path
            d="M119.551 11.1749L116.978 14.0586C116.602 13.7386 116.177 13.4809 115.72 13.2953C115.268 13.1502 114.795 13.0831 114.32 13.0968C113.115 13.0968 112.117 13.4819 111.325 14.252C110.533 15.0221 110.137 16.0093 110.138 17.2136C110.124 17.7594 110.22 18.3024 110.423 18.8094C110.625 19.3163 110.929 19.7766 111.315 20.1619C111.702 20.5472 112.163 20.8495 112.67 21.0501C113.178 21.2508 113.721 21.3456 114.266 21.3288C114.797 21.3471 115.327 21.2778 115.835 21.1235C116.324 20.9186 116.77 20.6234 117.149 20.2533L119.609 23.2523L118.393 24.0173C117.065 24.7024 115.59 25.0518 114.096 25.0351C111.759 25.0351 109.809 24.2916 108.245 22.8045C106.681 21.3175 105.899 19.4442 105.897 17.1848C105.897 14.9231 106.675 13.0572 108.23 11.5871C109.785 10.117 111.74 9.37577 114.095 9.36333C115.008 9.34911 115.918 9.48315 116.788 9.76025C117.763 10.1189 118.69 10.5939 119.551 11.1749Z"
            fill="#101828" />
        <path
            d="M122.999 24.8961V4.04562L126.872 3.65039V11.8247C127.909 10.185 129.435 9.36454 131.449 9.3634C132.675 9.3634 133.697 9.66477 134.517 10.2675C135.336 10.8703 135.811 11.5906 135.942 12.4286C136.083 13.4053 136.149 14.3915 136.14 15.3784V23.9513C136.14 24.0866 136.09 24.2171 135.999 24.3178C135.909 24.4185 135.785 24.4825 135.651 24.4975L132.069 24.8961V15.7872C132.078 15.4176 132.059 15.0479 132.013 14.6812C131.967 14.4462 131.89 14.2182 131.786 14.0027C131.521 13.2925 130.881 12.9374 129.864 12.9374C129.491 12.9257 129.121 12.994 128.777 13.1377C128.433 13.2814 128.124 13.4971 127.87 13.7703C127.346 14.3416 127.067 15.0966 127.094 15.872V24.3685L122.999 24.8961Z"
            fill="#101828" />
        <path
            d="M23.6966 11.3327C20.971 13.9993 18.2505 16.6013 15.6062 19.2797C14.8875 20.0057 14.4756 20.2347 13.7197 19.3306C12.8721 18.3129 11.8449 17.4155 10.8601 16.508C10.3075 15.9992 10.116 15.7006 10.8008 15.0374C13.4264 12.493 15.9622 9.8502 18.5285 7.23456C18.7183 7.03949 18.9895 6.89531 19.0133 6.55606C18.6997 6.27617 18.3217 6.41187 17.981 6.40848C15.6266 6.39491 13.2722 6.38473 10.9178 6.40848C10.3245 6.40848 10.0889 6.28126 10.1058 5.63668C10.1482 4.00657 10.138 2.37477 10.1058 0.744659C10.099 0.20864 10.2313 0 10.8262 0C17.0222 0.021486 23.2169 0.021486 29.4106 0C30.0717 0 30.17 0.251047 30.1683 0.822688C30.1525 7.02309 30.1525 13.2224 30.1683 19.4205C30.1683 20.099 29.953 20.2924 29.2987 20.2686C27.7732 20.2296 26.2477 20.2161 24.7357 20.2686C23.9848 20.2958 23.7492 20.099 23.7678 19.3137C23.8204 16.9949 23.7916 14.6727 23.7814 12.359C23.7848 12.018 23.8831 11.6516 23.6966 11.3327Z"
            fill="#155EEF" />
        <path
            d="M0.0203405 12.6778C0.0203405 10.8662 0.045766 9.0512 0 7.23959C0 6.61537 0.169504 6.44574 0.786498 6.46101C2.45328 6.50172 4.12007 6.50172 5.78686 6.46101C6.41402 6.44574 6.56319 6.6459 6.5581 7.24977C6.53098 10.4727 6.54115 13.7041 6.54624 16.932C6.54624 21.7359 10.1702 25.376 14.9807 25.4269C15.7774 25.4354 16.5775 25.4659 17.3708 25.4151C17.9708 25.376 18.0945 25.6135 18.0844 26.1597C18.0539 27.856 18.0691 29.5692 18.0844 31.2722C18.0844 31.6607 18.0979 31.927 17.5453 31.9508C12.9501 32.2001 8.67181 31.4419 5.10545 28.2444C1.88375 25.3687 0.191539 21.7777 0.0288156 17.4715C-0.0305107 15.8719 0.0203405 14.274 0.0203405 12.6778Z"
            fill="#101828" />
    </g>
    <defs>
        <clipPath id="clip0_8069_59503">
            <rect width="136.145" height="32" fill="white" />
        </clipPath>
    </defs>
</svg>