<svg width="38" height="40" viewBox="0 0 38 40" fill="none" xmlns="http://www.w3.org/2000/svg">
    <path
        d="M18.9036 12.6665C17.4533 12.6665 16.0354 13.0966 14.8295 13.9024C13.6235 14.7082 12.6836 15.8535 12.1285 17.1935C11.5735 18.5335 11.4283 20.008 11.7112 21.4305C11.9942 22.853 12.6926 24.1597 13.7182 25.1853C14.7438 26.2109 16.0505 26.9093 17.473 27.1923C18.8955 27.4752 20.37 27.33 21.71 26.7749C23.05 26.2199 24.1953 25.28 25.0011 24.074C25.8069 22.8681 26.237 21.4502 26.237 19.9998C26.2348 18.0556 25.4614 16.1916 24.0867 14.8168C22.7119 13.442 20.8479 12.6687 18.9036 12.6665ZM18.9036 24.6665C17.9807 24.6665 17.0784 24.3928 16.311 23.88C15.5436 23.3672 14.9454 22.6384 14.5922 21.7857C14.239 20.933 14.1466 19.9947 14.3267 19.0894C14.5067 18.1842 14.9512 17.3526 15.6038 16.7C16.2565 16.0474 17.088 15.6029 17.9932 15.4228C18.8985 15.2428 19.8368 15.3352 20.6895 15.6884C21.5422 16.0416 22.2711 16.6397 22.7838 17.4072C23.2966 18.1746 23.5703 19.0769 23.5703 19.9998C23.5689 21.2371 23.0768 22.4233 22.2019 23.2981C21.3271 24.173 20.1409 24.6651 18.9036 24.6665Z"
        fill="black" />
    <path
        d="M37.1997 25.5266L34.5522 23.3472C35.0215 21.1404 35.0215 18.8596 34.5522 16.6528L37.1997 14.4734C37.505 14.2232 37.7113 13.8725 37.7817 13.4841C37.852 13.0957 37.7818 12.6949 37.5835 12.3535L34.8659 7.64659C34.6694 7.30411 34.3574 7.0428 33.9857 6.90949C33.6141 6.77617 33.2071 6.77958 32.8378 6.91909L29.6244 8.123C27.9504 6.61057 25.9755 5.46916 23.8294 4.77367L23.2655 1.39276C23.2017 1.00312 23.0012 0.648948 22.6999 0.39373C22.3987 0.138513 22.0164 -0.00106806 21.6215 6.15445e-06H16.1864C15.7915 -0.00105439 15.4093 0.138521 15.108 0.393719C14.8067 0.648917 14.6062 1.00306 14.5424 1.39267L13.9789 4.77367C11.8327 5.46914 9.85784 6.61055 8.18386 8.123L4.97011 6.91892C4.60077 6.7795 4.19386 6.77616 3.82228 6.90948C3.4507 7.0428 3.13873 7.30408 2.94228 7.6465L0.224696 12.3538C0.0264972 12.6951 -0.0436917 13.0959 0.0267004 13.4844C0.0970925 13.8728 0.303467 14.2235 0.608863 14.4736L3.25611 16.6528C2.78678 18.8596 2.78678 21.1404 3.25611 23.3472L0.608613 25.5266C0.303266 25.7768 0.0969476 26.1275 0.0266027 26.5159C-0.0437422 26.9043 0.0264803 27.3051 0.224696 27.6465L2.94236 32.3534C3.13884 32.6959 3.45085 32.9572 3.82249 33.0905C4.19412 33.2238 4.60108 33.2204 4.97044 33.0809L8.18394 31.877C9.85792 33.3894 11.8328 34.5309 13.9789 35.2263L14.5424 38.6072C14.6063 38.9969 14.8068 39.351 15.108 39.6062C15.4093 39.8614 15.7915 40.001 16.1864 40H21.6215C22.0163 40.0011 22.3986 39.8615 22.6999 39.6063C23.0012 39.3511 23.2017 38.9969 23.2655 38.6073L23.8291 35.2263C25.9753 34.5308 27.9501 33.3894 29.6241 31.877L32.8378 33.0811C33.2071 33.2205 33.614 33.2238 33.9856 33.0905C34.3572 32.9572 34.6691 32.6959 34.8656 32.3535L37.583 27.6462C37.7813 27.305 37.8516 26.9043 37.7813 26.5159C37.7111 26.1275 37.5049 25.7768 37.1997 25.5266ZM32.98 30.2866L28.9709 28.7846L28.3639 29.3957C26.6936 31.0793 24.6044 32.2867 22.3118 32.8935L21.4784 33.1132L20.7747 37.3333H17.0339L16.3304 33.1132L15.497 32.8935C13.2044 32.2867 11.1152 31.0793 9.44494 29.3957L8.83786 28.7846L4.82811 30.2866L2.95803 27.0468L6.26044 24.3282L6.03544 23.4971C5.41668 21.2067 5.41668 18.7932 6.03544 16.5029L6.26044 15.6719L2.95803 12.9533L4.82853 9.71342L8.83761 11.2154L9.44469 10.6043C11.115 8.92072 13.2042 7.71328 15.4968 7.1065L16.3301 6.88684L17.0335 2.66667H20.7747L21.4782 6.88684L22.3115 7.1065C24.6041 7.71328 26.6933 8.92072 28.3636 10.6043L28.9707 11.2154L32.9798 9.71342L34.8504 12.9532L31.5479 15.6719L31.7729 16.5029C32.3917 18.7932 32.3917 21.2067 31.7729 23.4971L31.5479 24.3282L34.8504 27.0467L32.98 30.2866Z"
        fill="black" />
</svg>