<svg width="24" height="24" viewBox="0 0 24 24" fill="none" xmlns="http://www.w3.org/2000/svg">
<path d="M12 2.25012C10.0716 2.25012 8.18657 2.82195 6.58319 3.89329C4.97982 4.96464 3.73013 6.48738 2.99218 8.26896C2.25422 10.0505 2.06114 12.0109 2.43735 13.9023C2.81355 15.7936 3.74215 17.5309 5.10571 18.8944C6.46928 20.258 8.20656 21.1866 10.0979 21.5628C11.9892 21.939 13.9496 21.7459 15.7312 21.0079C17.5127 20.27 19.0355 19.0203 20.1068 17.4169C21.1782 15.8136 21.75 13.9285 21.75 12.0001C21.745 9.41578 20.7162 6.93871 18.8888 5.1113C17.0614 3.2839 14.5843 2.25508 12 2.25012ZM16.6406 10.2939L11.1469 15.5439C11.0049 15.6775 10.8169 15.7513 10.6219 15.7501C10.5266 15.7515 10.4319 15.734 10.3434 15.6986C10.2549 15.6632 10.1743 15.6106 10.1063 15.5439L7.35938 12.9189C7.28319 12.8524 7.22123 12.7712 7.17722 12.6802C7.13321 12.5892 7.10806 12.4902 7.10328 12.3892C7.0985 12.2882 7.11419 12.1873 7.14941 12.0925C7.18463 11.9977 7.23865 11.911 7.30822 11.8377C7.3778 11.7643 7.46149 11.7057 7.55426 11.6656C7.64703 11.6254 7.74698 11.6043 7.84809 11.6037C7.94919 11.6032 8.04938 11.623 8.14261 11.6621C8.23585 11.7013 8.32021 11.7588 8.39063 11.8314L10.6219 13.9595L15.6094 9.20637C15.7552 9.07914 15.9446 9.01321 16.1379 9.02236C16.3312 9.0315 16.5135 9.11502 16.6467 9.25545C16.7798 9.39588 16.8536 9.58235 16.8524 9.77587C16.8513 9.9694 16.7754 10.155 16.6406 10.2939Z" fill="#155EEF"/>
</svg>
