<svg width="20" height="20" viewBox="0 0 20 20" fill="none" xmlns="http://www.w3.org/2000/svg">
    <path
        d="M13.7597 11.1978L10.0017 7.43976L6.24365 11.1978L7.18644 12.1405L9.33499 9.99201V20H10.6683V9.99201L12.8169 12.1405L13.7597 11.1978Z"
        fill="white" />
    <path
        d="M16 6.06054V6C16 2.69167 13.3083 0 10 0C6.69167 0 4 2.69167 4 6V6.10379C3.01255 6.29014 2.10225 6.76431 1.38358 7.46667C0.946238 7.89114 0.598456 8.39902 0.360808 8.96024C0.12316 9.52147 0.000472165 10.1247 0 10.7341C0 12.0307 0.532833 13.2659 1.50042 14.212C2.44583 15.1365 3.72242 15.6667 5.00292 15.6667H7.66667V14.3333H5.00292C3.04808 14.3333 1.33333 12.6515 1.33333 10.7341C1.33333 8.97296 2.81833 7.48763 4.71404 7.35267L5.33333 7.30854V6C5.33333 4.76232 5.825 3.57534 6.70017 2.70017C7.57534 1.825 8.76232 1.33333 10 1.33333C11.2377 1.33333 12.4247 1.825 13.2998 2.70017C14.175 3.57534 14.6667 4.76232 14.6667 6V7.335L15.325 7.34333C17.2613 7.36783 18.6667 8.79387 18.6667 10.7341C18.6667 12.7524 17.1811 14.3333 15.2846 14.3333H12.3333V15.6667H15.2846C15.9198 15.6688 16.5485 15.5385 17.1306 15.2841C17.7127 15.0298 18.2354 14.657 18.6654 14.1894C19.526 13.2641 20 12.037 20 10.7341C20 8.29925 18.3215 6.39133 16 6.06054Z"
        fill="white" />
</svg>