<svg width="24" height="24" viewBox="0 0 24 24" fill="none" xmlns="http://www.w3.org/2000/svg">
    <path
        d="M12.1359 2.25042C6.65243 2.17636 2.17587 6.65292 2.24993 12.1364C2.32305 17.3953 6.60509 21.6773 11.864 21.7504C17.3484 21.8254 21.824 17.3489 21.749 11.8654C21.6768 6.60557 17.3948 2.32354 12.1359 2.25042ZM18.0618 17.5903C18.0431 17.6105 18.0202 17.6263 17.9948 17.6367C17.9693 17.647 17.9418 17.6516 17.9144 17.6502C17.8869 17.6488 17.8601 17.6413 17.8358 17.6284C17.8116 17.6154 17.7905 17.5973 17.774 17.5753C17.3547 17.0267 16.8413 16.5571 16.2576 16.1882C15.0641 15.4223 13.552 15.0004 11.9999 15.0004C10.4479 15.0004 8.93571 15.4223 7.74227 16.1882C7.15862 16.5569 6.64516 17.0264 6.22587 17.5748C6.20939 17.5968 6.18828 17.6149 6.16402 17.6279C6.13976 17.6409 6.11294 17.6483 6.08548 17.6497C6.05801 17.6512 6.03057 17.6465 6.00509 17.6362C5.97961 17.6258 5.95673 17.61 5.93805 17.5898C4.56259 16.105 3.78344 14.1648 3.74993 12.141C3.67352 7.57964 7.41649 3.76167 11.9798 3.75042C16.5431 3.73917 20.2499 7.44464 20.2499 12.0004C20.2515 14.073 19.4699 16.0696 18.0618 17.5903Z"
        fill="black" />
    <path
        d="M12.0004 6.75C11.0761 6.75 10.2403 7.09641 9.64639 7.72594C9.05248 8.35547 8.75576 9.22594 8.82279 10.1602C8.95873 12 10.3842 13.5 12.0004 13.5C13.6167 13.5 15.0394 12 15.1781 10.1606C15.2475 9.23531 14.9531 8.37281 14.3494 7.73156C13.7531 7.09875 12.9187 6.75 12.0004 6.75Z"
        fill="black" />
</svg>