<svg width="24" height="24" viewBox="0 0 32 32" fill="none" xmlns="http://www.w3.org/2000/svg">
    <path
        d="M26 8C24.8188 8.26562 23.7 8.55875 22.6437 8.87187C20.1125 9.62187 17.925 10.5688 16.0562 11.475C14.85 12.0606 14.4187 12.3194 12.8375 13.2394C9.1875 15.345 7 18.0769 7 22.165C7 26.7844 10.475 30 16 30C21.525 30 25 26.5119 25 21.8925C25 17.2731 21.1875 14.0775 26 8Z"
        stroke="black" strokeLinecap="round" strokeLinejoin="round" />
    <path
        d="M16.5 11.2619C15.2694 9.57438 14.1125 8.84375 13.2063 8.35C10.1625 6.69375 6 6 6 6C8.59375 8.73125 8.325 11.6312 8 14C8 14 7.75813 16.055 8.11938 17.6506"
        stroke="black" strokeLinecap="round" strokeLinejoin="round" />
    <path d="M23.2502 8.69687C22.2845 6.4125 21.0002 4 21.0002 4C21.0002 4 17.0427 4 12.5195 8" stroke="black"
        strokeLinecap="round" strokeLinejoin="round" />
    <path d="M15.8422 5.47313C13.8278 2.86313 10.9997 2 10.9997 2C10.0434 3.3 9.20031 5.22375 8.82031 6.63563"
        stroke="black" strokeLinecap="round" strokeLinejoin="round" />
</svg>