<svg width="24" height="24" viewBox="0 0 33 33" fill="none" xmlns="http://www.w3.org/2000/svg">
    <path
        d="M9.35547 7C9.35547 5.61929 8.23618 4.5 6.85547 4.5C5.47476 4.5 4.35547 5.61929 4.35547 7C4.35547 8.38071 5.47476 9.5 6.85547 9.5C8.23618 9.5 9.35547 8.38071 9.35547 7Z"
        stroke="black" stroke-miterlimit="10" />
    <path
        d="M18.8555 7C18.8555 5.61929 17.7362 4.5 16.3555 4.5C14.9748 4.5 13.8555 5.61929 13.8555 7C13.8555 8.38071 14.9748 9.5 16.3555 9.5C17.7362 9.5 18.8555 8.38071 18.8555 7Z"
        stroke="black" stroke-miterlimit="10" />
    <path
        d="M28.3555 7C28.3555 5.61929 27.2362 4.5 25.8555 4.5C24.4748 4.5 23.3555 5.61929 23.3555 7C23.3555 8.38071 24.4748 9.5 25.8555 9.5C27.2362 9.5 28.3555 8.38071 28.3555 7Z"
        stroke="black" stroke-miterlimit="10" />
    <path
        d="M9.35547 16.5C9.35547 15.1193 8.23618 14 6.85547 14C5.47476 14 4.35547 15.1193 4.35547 16.5C4.35547 17.8807 5.47476 19 6.85547 19C8.23618 19 9.35547 17.8807 9.35547 16.5Z"
        stroke="black" stroke-miterlimit="10" />
    <path
        d="M18.8555 16.5C18.8555 15.1193 17.7362 14 16.3555 14C14.9748 14 13.8555 15.1193 13.8555 16.5C13.8555 17.8807 14.9748 19 16.3555 19C17.7362 19 18.8555 17.8807 18.8555 16.5Z"
        stroke="black" stroke-miterlimit="10" />
    <path
        d="M28.3555 16.5C28.3555 15.1193 27.2362 14 25.8555 14C24.4748 14 23.3555 15.1193 23.3555 16.5C23.3555 17.8807 24.4748 19 25.8555 19C27.2362 19 28.3555 17.8807 28.3555 16.5Z"
        stroke="black" stroke-miterlimit="10" />
    <path
        d="M9.35547 26C9.35547 24.6193 8.23618 23.5 6.85547 23.5C5.47476 23.5 4.35547 24.6193 4.35547 26C4.35547 27.3807 5.47476 28.5 6.85547 28.5C8.23618 28.5 9.35547 27.3807 9.35547 26Z"
        stroke="black" stroke-miterlimit="10" />
    <path
        d="M18.8555 26C18.8555 24.6193 17.7362 23.5 16.3555 23.5C14.9748 23.5 13.8555 24.6193 13.8555 26C13.8555 27.3807 14.9748 28.5 16.3555 28.5C17.7362 28.5 18.8555 27.3807 18.8555 26Z"
        stroke="black" stroke-miterlimit="10" />
    <path
        d="M28.3555 26C28.3555 24.6193 27.2362 23.5 25.8555 23.5C24.4748 23.5 23.3555 24.6193 23.3555 26C23.3555 27.3807 24.4748 28.5 25.8555 28.5C27.2362 28.5 28.3555 27.3807 28.3555 26Z"
        stroke="black" stroke-miterlimit="10" />
</svg>