<svg width="24" height="25" viewBox="0 0 24 25" fill="none" xmlns="http://www.w3.org/2000/svg">
    <path
        d="M19.1222 2.94739C19.1222 2.94739 15.0609 7.99958 11.25 7.99958H3.75C3.55109 7.99958 3.36032 8.07859 3.21967 8.21925C3.07902 8.3599 3 8.55066 3 8.74958V13.2496C3 13.4485 3.07902 13.6393 3.21967 13.7799C3.36032 13.9206 3.55109 13.9996 3.75 13.9996H11.25C15.0609 13.9996 19.1222 19.0729 19.1222 19.0729C19.4063 19.4479 20.25 19.191 20.25 18.6121V3.40583C20.25 2.8288 19.4531 2.52364 19.1222 2.94739Z"
        stroke="black" strokeLinecap="round" strokeLinejoin="round" />
    <path d="M3 12.5C3 12.5 2.25 12.2188 2.25 11C2.25 9.78125 3 9.5 3 9.5" stroke="black" strokeLinecap="round"
        strokeLinejoin="round" />
    <path d="M21 12.0312C21 12.0312 21.75 11.8283 21.75 11C21.75 10.1717 21 9.96875 21 9.96875" stroke="black"
        strokeLinecap="round" strokeLinejoin="round" />
    <path d="M12 8V14" stroke="black" strokeLinecap="round" strokeLinejoin="round" />
    <path d="M5.25 8V14" stroke="black" strokeLinecap="round" strokeLinejoin="round" />
    <path
        d="M6.75 14V21.875C6.75 21.9745 6.78951 22.0698 6.85983 22.1402C6.93016 22.2105 7.02554 22.25 7.125 22.25H9.60938C9.72686 22.25 9.84272 22.2225 9.9476 22.1695C10.0525 22.1166 10.1435 22.0397 10.2132 21.9452C10.2829 21.8506 10.3295 21.741 10.3491 21.6252C10.3687 21.5093 10.3608 21.3905 10.3261 21.2783C9.93328 20.0183 9 18.5975 9 16.25H9.75C9.94891 16.25 10.1397 16.171 10.2803 16.0303C10.421 15.8897 10.5 15.6989 10.5 15.5V14.75C10.5 14.5511 10.421 14.3603 10.2803 14.2197C10.1397 14.079 9.94891 14 9.75 14H9"
        stroke="black" strokeLinecap="round" strokeLinejoin="round" />
</svg>