<svg width="150" height="33" viewBox="0 0 150 33" fill="none" xmlns="http://www.w3.org/2000/svg">
    <path
        d="M5.72993 26.6714C6.48028 27.1489 7.29884 27.3536 8.25382 27.3536C9.54988 27.3536 10.7777 26.9443 11.9373 25.9893C12.4831 25.5118 12.9606 24.9661 13.3016 24.2158C13.6427 23.5336 13.7791 22.5786 13.7791 21.5554V0H18.6905V21.9647C18.6223 25.1708 17.5991 27.6264 15.4844 29.4C13.438 31.1735 11.0506 32.1285 8.32204 32.1285C4.63851 32.0603 1.84176 30.696 0 27.9675L3.95638 25.1708C4.36566 25.7847 4.97958 26.2622 5.72993 26.6714Z"
        fill="#FF6F00" />
    <path
        d="M41.6104 24.7615H29.4002L26.9445 31.9239H21.7603L33.493 0H37.5858L49.3185 31.9239H44.2025L41.6104 24.7615ZM40.2461 20.464L35.6076 6.54849H35.4712L30.8326 20.464H40.2461Z"
        fill="#FF6F00" />
    <path
        d="M52.7292 0H57.2995L66.5083 20.8051L75.5807 0H80.2192V31.9239H75.3078V12.0056H75.1714L68.4183 27.2854H64.3255L57.5724 12.0056H57.5041V31.9239H52.5928V0H52.7292Z"
        fill="#FF6F00" />
    <path
        d="M94.3355 10.9141C95.9727 10.9141 96.8594 10.3002 96.8594 9.1406C96.8594 8.18561 96.3137 7.6399 95.2223 7.43526C94.6766 7.36705 94.1309 7.29884 93.517 7.23062C92.4256 7.02598 91.607 6.6167 90.9931 6.00278C90.3792 5.38886 90.1063 4.5703 90.1063 3.68353C90.1063 2.59211 90.4474 1.70534 91.1977 1.0232C91.9481 0.341067 92.9713 0 94.2673 0C95.8362 0.0682134 97.2687 0.477494 98.4283 1.29606L97.3369 2.86496C96.3819 2.25104 95.2905 1.90998 94.1309 1.90998C93.517 1.90998 93.0395 2.0464 92.6302 2.38747C92.2209 2.72854 92.0163 3.13782 92.0163 3.75174C92.0163 4.09281 92.1527 4.43387 92.4256 4.77494C92.6984 5.04779 93.1759 5.25243 93.7898 5.38886C94.1309 5.45707 94.6084 5.52529 95.2223 5.5935C96.4501 5.72993 97.3369 6.20742 97.8826 6.88956C98.4283 7.57169 98.7694 8.39025 98.7694 9.27703C98.7012 11.7327 97.2005 12.9606 94.2673 12.9606C92.3573 12.9606 90.7202 12.3466 89.356 11.187L90.652 9.75452C91.7434 10.4367 92.9713 10.9141 94.3355 10.9141Z"
        fill="black" />
    <path
        d="M100.816 0.954987H102.657V3.68352H104.022V5.04779H102.657V10.3002C102.657 10.7777 102.862 10.9824 103.34 10.9824H104.022V12.6877H103.067C102.453 12.6877 101.907 12.4831 101.498 12.0738C101.088 11.6645 100.884 11.1188 100.884 10.4367V5.04779H99.9971V3.68352H100.884V0.954987H100.816Z"
        fill="black" />
    <path
        d="M110.502 11.9374C110.297 12.2784 110.024 12.4831 109.683 12.6195C109.342 12.7559 108.865 12.8241 108.251 12.8241C107.228 12.8241 106.477 12.5513 105.863 12.0056C105.249 11.5281 104.977 10.8459 104.977 10.0274C104.977 9.27704 105.249 8.66312 105.727 8.11741C106.204 7.63991 106.955 7.36706 107.91 7.36706H110.434V6.41207C110.434 5.59351 109.82 5.25244 108.592 5.25244C108.114 5.25244 107.773 5.32066 107.5 5.38887C107.228 5.5253 107.023 5.66172 106.818 5.93458L105.386 4.84316C106.068 3.95639 107.091 3.4789 108.455 3.54711C109.615 3.54711 110.502 3.75175 111.184 4.16103C111.866 4.63852 112.207 5.38887 112.207 6.48029V12.6195H110.365V11.9374H110.502ZM110.502 8.86776H108.319C107.228 8.86776 106.75 9.27704 106.75 9.95917C106.75 10.3002 106.887 10.5049 107.159 10.7095C107.432 10.9142 107.842 11.0506 108.455 11.0506C109.206 11.0506 109.752 10.9824 110.093 10.7777C110.365 10.5731 110.502 10.1638 110.502 9.48168V8.86776Z"
        fill="black" />
    <path
        d="M121.416 11.2552C121.006 11.7327 120.529 12.0738 119.983 12.3467C119.438 12.6195 118.824 12.8241 118.141 12.8241C117.05 12.8241 116.095 12.4831 115.277 11.7327C114.458 10.9824 113.98 9.82275 113.98 8.18563C113.98 6.54851 114.458 5.32067 115.277 4.63853C116.095 3.88819 117.05 3.54712 118.141 3.54712C118.824 3.54712 119.506 3.68355 119.983 3.9564C120.529 4.22925 121.006 4.63853 121.416 5.11603L120.051 6.27566C119.574 5.66174 118.96 5.32067 118.21 5.32067C116.641 5.32067 115.89 6.20744 115.822 8.11742C115.822 10.0274 116.641 10.9142 118.21 10.9142C118.96 10.9142 119.574 10.5731 120.051 9.95918L121.416 11.2552Z"
        fill="black" />
    <path
        d="M122.712 0H124.554V7.91276H124.622L128.101 3.68353H130.284L127.146 7.23062L130.693 12.7559H128.374L125.918 8.52668L124.486 10.1638V12.7559H122.644V0H122.712Z"
        fill="black" />
    <path
        d="M89.2192 19.2362H91.2656L94.1988 28.9225H94.267L97.2002 19.2362H99.2466L94.9492 31.9239H93.4485L89.2192 19.2362Z"
        fill="black" />
    <path d="M100.133 19.2362H101.975V21.078H100.133V19.2362ZM100.133 22.8515H101.975V31.9239H100.133V22.8515Z"
        fill="black" />
    <path
        d="M105.795 28.1039C105.795 28.8543 106 29.4 106.409 29.741C106.818 30.1503 107.296 30.2867 107.978 30.2867C108.728 30.2867 109.411 30.0139 109.956 29.4L111.252 30.4914C110.297 31.4464 109.206 31.9921 107.978 31.9239C107.501 31.9239 107.023 31.8557 106.546 31.7192C106.341 31.651 106.068 31.5146 105.863 31.4464C105.659 31.3099 105.454 31.1735 105.25 31.0371C104.84 30.696 104.567 30.2185 104.295 29.6046C104.022 28.9907 103.885 28.2403 103.885 27.3536C103.885 26.4668 104.022 25.7164 104.226 25.1025C104.431 24.4886 104.772 24.0111 105.113 23.67C105.454 23.329 105.863 23.0561 106.341 22.9197C106.818 22.7833 107.228 22.7151 107.637 22.7151C108.66 22.7151 109.547 23.0561 110.297 23.7383C111.048 24.4204 111.389 25.3754 111.389 26.535V28.0357H105.795V28.1039ZM109.615 26.6032C109.615 25.9211 109.411 25.3754 109.069 25.0343C108.728 24.6932 108.251 24.4886 107.705 24.4886C107.159 24.4886 106.682 24.6932 106.341 25.0343C106 25.3754 105.795 25.9211 105.795 26.6032H109.615Z"
        fill="black" />
    <path
        d="M113.503 20.123H115.345V22.8515H116.709V24.2158H115.345V29.4682C115.345 29.9457 115.55 30.1503 116.027 30.1503H116.709V31.9239H115.754C115.14 31.9239 114.595 31.7192 114.185 31.31C113.776 30.9007 113.571 30.355 113.571 29.6728V24.284H112.685V22.9197H113.571V20.123H113.503Z"
        fill="black" />
    <path
        d="M118.415 22.8515H120.256V23.8065H120.325C120.938 23.1243 121.689 22.7151 122.712 22.7151C123.462 22.7151 124.144 22.9879 124.758 23.5336C125.372 24.0793 125.713 24.8297 125.713 25.8529V31.9239H123.872V26.535C123.872 25.9211 123.735 25.4436 123.394 25.1025C123.053 24.7615 122.644 24.625 122.098 24.625C121.552 24.625 121.143 24.7615 120.802 25.1025C120.461 25.4436 120.256 25.9211 120.256 26.535V31.9239H118.415V22.8515Z"
        fill="black" />
    <path
        d="M132.876 31.1053C132.671 31.4464 132.398 31.651 132.057 31.7875C131.716 31.9239 131.239 31.9921 130.625 31.9921C129.602 31.9921 128.851 31.7192 128.237 31.1735C127.623 30.696 127.351 30.0139 127.351 29.1954C127.351 28.445 127.623 27.8311 128.101 27.2854C128.578 26.8079 129.329 26.535 130.284 26.535H132.808V25.58C132.808 24.7615 132.194 24.4204 130.966 24.4204C130.488 24.4204 130.147 24.4886 129.874 24.5568C129.602 24.6933 129.397 24.8297 129.192 25.1025L127.76 24.0111C128.442 23.1244 129.465 22.6469 130.829 22.7151C131.989 22.7151 132.876 22.9197 133.558 23.329C134.24 23.8065 134.581 24.5568 134.581 25.6483V31.7875H132.739V31.1053H132.876ZM132.876 28.1039H130.693C129.602 28.1039 129.124 28.5132 129.124 29.1954C129.124 29.5364 129.261 29.7411 129.533 29.9457C129.806 30.1503 130.216 30.2868 130.829 30.2868C131.58 30.2868 132.126 30.2186 132.467 30.0139C132.739 29.8093 132.876 29.4 132.876 28.7179V28.1039Z"
        fill="black" />
    <path
        d="M137.173 22.8515H139.015V23.8065H139.083C139.697 23.1243 140.447 22.7151 141.471 22.7151C142.085 22.7151 142.63 22.8515 142.971 23.0561C143.381 23.2608 143.722 23.6018 143.995 23.9429C144.677 23.1243 145.7 22.7151 146.86 22.7833C147.61 22.7833 148.292 23.0561 148.906 23.6018C149.52 24.1475 149.861 24.8979 149.861 25.9211V31.9239H148.019V26.535C148.019 25.9211 147.883 25.4436 147.542 25.1025C147.201 24.7615 146.791 24.625 146.246 24.625C145.7 24.625 145.291 24.7615 144.95 25.1025C144.608 25.4436 144.404 25.9211 144.404 26.535V31.9239H142.562V26.535C142.562 25.9211 142.426 25.4436 142.085 25.1025C141.743 24.7615 141.334 24.625 140.789 24.625C140.243 24.625 139.834 24.7615 139.492 25.1025C139.151 25.4436 138.947 25.9211 138.947 26.535V31.9239H137.105V22.8515H137.173Z"
        fill="black" />
</svg>