<svg width="24" height="24" viewBox="0 0 32 32" fill="none" xmlns="http://www.w3.org/2000/svg">
    <path
        d="M23.4244 19.2976L28.5938 22.9363C28.746 23.004 28.9128 23.0326 29.0789 23.0194C29.245 23.0063 29.4051 22.9519 29.5449 22.8611C29.6846 22.7703 29.7994 22.646 29.8789 22.4996C29.9584 22.3532 30 22.1892 30 22.0226V9.97508C30 9.80846 29.9584 9.64449 29.8789 9.49805C29.7994 9.35161 29.6846 9.22735 29.5449 9.13657C29.4051 9.04579 29.245 8.99135 29.0789 8.97821C28.9128 8.96507 28.746 8.99365 28.5938 9.06134L23.4244 12.7001C23.2933 12.7924 23.1863 12.9148 23.1125 13.0571C23.0386 13.1993 23 13.3573 23 13.5176V18.4801C23 18.6404 23.0386 18.7983 23.1125 18.9406C23.1863 19.0829 23.2933 19.2053 23.4244 19.2976Z"
        stroke="black" strokeLinecap="round" strokeLinejoin="round" />
    <path
        d="M16.75 24H5.25C4.38881 23.9975 3.56359 23.6543 2.95464 23.0454C2.34568 22.4364 2.00247 21.6112 2 20.75V11.25C2.00247 10.3888 2.34568 9.56359 2.95464 8.95464C3.56359 8.34568 4.38881 8.00247 5.25 8H16.78C17.6332 8.00264 18.4507 8.34273 19.054 8.94603C19.6573 9.54933 19.9974 10.3668 20 11.22V20.75C19.9975 21.6112 19.6543 22.4364 19.0454 23.0454C18.4364 23.6543 17.6112 23.9975 16.75 24Z"
        stroke="black" stroke-miterlimit="10" />
</svg>