<svg width="24" height="24" viewBox="0 0 33 32" fill="none" xmlns="http://www.w3.org/2000/svg">
    <path
        d="M24.3555 14V25.5C24.3555 25.8283 24.2908 26.1534 24.1652 26.4567C24.0395 26.76 23.8554 27.0356 23.6232 27.2678C23.3911 27.4999 23.1155 27.6841 22.8122 27.8097C22.5089 27.9353 22.1838 28 21.8555 28H6.85547C6.19243 28 5.55654 27.7366 5.0877 27.2678C4.61886 26.7989 4.35547 26.163 4.35547 25.5V10.5C4.35547 9.83696 4.61886 9.20107 5.0877 8.73223C5.55654 8.26339 6.19243 8 6.85547 8H17.323"
        stroke="black" strokeLinecap="round" strokeLinejoin="round" />
    <path
        d="M29.1012 3.32814C29.0099 3.22779 28.8991 3.147 28.7757 3.09065C28.6523 3.0343 28.5187 3.00356 28.383 3.00029C28.2474 2.99702 28.1125 3.02128 27.9865 3.07162C27.8605 3.12195 27.746 3.19731 27.6499 3.29314L26.8768 4.06252C26.7831 4.15627 26.7305 4.2834 26.7305 4.41595C26.7305 4.5485 26.7831 4.67563 26.8768 4.76939L27.5856 5.47689C27.632 5.52356 27.6872 5.5606 27.7481 5.58588C27.8089 5.61115 27.8741 5.62416 27.9399 5.62416C28.0058 5.62416 28.071 5.61115 28.1318 5.58588C28.1926 5.5606 28.2478 5.52356 28.2943 5.47689L29.0481 4.72689C29.4293 4.34627 29.4649 3.72627 29.1012 3.32814Z"
        fill="black" />
    <path
        d="M25.3143 5.62464L14.0318 16.8871C13.9634 16.9553 13.9137 17.0399 13.8874 17.1328L13.3655 18.6871C13.353 18.7293 13.3522 18.7741 13.363 18.8167C13.3738 18.8594 13.3959 18.8983 13.427 18.9294C13.4581 18.9605 13.4971 18.9826 13.5397 18.9935C13.5824 19.0043 13.6271 19.0034 13.6693 18.9909L15.2224 18.469C15.3153 18.4428 15.3999 18.393 15.468 18.3246L26.7305 7.04089C26.8347 6.93558 26.8932 6.79341 26.8932 6.64527C26.8932 6.49712 26.8347 6.35495 26.7305 6.24964L26.1087 5.62464C26.0032 5.5195 25.8604 5.46045 25.7115 5.46045C25.5626 5.46045 25.4197 5.5195 25.3143 5.62464Z"
        fill="black" />
</svg>