<svg width="24" height="24" viewBox="0 0 32 32" fill="none" xmlns="http://www.w3.org/2000/svg">
    <path
        d="M2 10V28.5C2 28.6326 2.05268 28.7598 2.14645 28.8536C2.24021 28.9473 2.36739 29 2.5 29H11V10C11 9.73478 10.8946 9.48043 10.7071 9.29289C10.5196 9.10536 10.2652 9 10 9H3C2.73478 9 2.48043 9.10536 2.29289 9.29289C2.10536 9.48043 2 9.73478 2 10V10Z"
        stroke="black" strokeLinecap="round" strokeLinejoin="round" />
    <path
        d="M20 3H12C11.7348 3 11.4804 3.10536 11.2929 3.29289C11.1054 3.48043 11 3.73478 11 4V29H21V4C21 3.73478 20.8946 3.48043 20.7071 3.29289C20.5196 3.10536 20.2652 3 20 3V3Z"
        stroke="black" strokeLinecap="round" strokeLinejoin="round" />
    <path
        d="M29 13H22C21.7348 13 21.4804 13.1054 21.2929 13.2929C21.1054 13.4804 21 13.7348 21 14V29H29.5C29.6326 29 29.7598 28.9473 29.8536 28.8536C29.9473 28.7598 30 28.6326 30 28.5V14C30 13.7348 29.8946 13.4804 29.7071 13.2929C29.5196 13.1054 29.2652 13 29 13Z"
        stroke="black" strokeLinecap="round" strokeLinejoin="round" />
</svg>