<svg width="24" height="24" viewBox="0 0 32 33" fill="none" xmlns="http://www.w3.org/2000/svg">
    <path
        d="M26 14.3281V26.5C26 27.2956 25.6839 28.0587 25.1213 28.6213C24.5587 29.1839 23.7956 29.5 23 29.5H9C8.20435 29.5 7.44129 29.1839 6.87868 28.6213C6.31607 28.0587 6 27.2956 6 26.5V6.5C6 5.70435 6.31607 4.94129 6.87868 4.37868C7.44129 3.81607 8.20435 3.5 9 3.5H15.1719C15.7021 3.50008 16.2106 3.71072 16.5856 4.08562L25.4144 12.9144C25.7893 13.2894 25.9999 13.7979 26 14.3281Z"
        stroke="black" strokeLinejoin="round" />
    <path d="M16 4V11.5C16 12.0304 16.2107 12.5391 16.5858 12.9142C16.9609 13.2893 17.4696 13.5 18 13.5H25.5"
        stroke="black" strokeLinecap="round" strokeLinejoin="round" />
    <path d="M11 18.5H21" stroke="black" strokeLinecap="round" strokeLinejoin="round" />
    <path d="M11 23.5H21" stroke="black" strokeLinecap="round" strokeLinejoin="round" />
</svg>