<svg width="24" height="24" viewBox="0 0 32 33" fill="none" xmlns="http://www.w3.org/2000/svg">
    <path
        d="M19.66 3.5C19.66 3.5 18.2362 4 16 4C13.7638 4 12.34 3.5 12.34 3.5C12.115 3.50001 11.8917 3.53804 11.6794 3.6125L2 7L3.03938 12.5L6.09438 12.845C6.4685 12.8873 6.81302 13.0688 7.05952 13.3534C7.30603 13.638 7.43649 14.0049 7.425 14.3813L7 29.5H25L24.575 14.3813C24.5635 14.0049 24.694 13.638 24.9405 13.3534C25.187 13.0688 25.5315 12.8873 25.9056 12.845L28.9606 12.5L30 7L20.3206 3.6125C20.1083 3.53804 19.885 3.50001 19.66 3.5V3.5Z"
        stroke="black" strokeLinecap="round" strokeLinejoin="round" />
    <path
        d="M20.8317 3.79102C20.5483 4.85612 19.9209 5.79774 19.0471 6.46945C18.1733 7.14117 17.102 7.50534 15.9998 7.50534C14.8977 7.50534 13.8264 7.14117 12.9526 6.46945C12.0788 5.79774 11.4514 4.85612 11.168 3.79102"
        stroke="black" strokeLinecap="round" strokeLinejoin="round" />
</svg>