<svg width="24" height="24" viewBox="0 0 24 24" fill="none" xmlns="http://www.w3.org/2000/svg">
    <path
        d="M17.1585 6.8432C16.7686 6.45312 16.5402 5.9302 16.5192 5.37903C16.4982 4.82785 16.686 4.28906 17.0451 3.87039C17.0748 3.83557 17.0902 3.79081 17.0883 3.74508C17.0864 3.69936 17.0673 3.65604 17.0348 3.62383L14.9662 1.55289C14.932 1.51871 14.8856 1.49951 14.8373 1.49951C14.7889 1.49951 14.7426 1.51871 14.7084 1.55289L11.4112 4.85008C11.2895 4.9717 11.1979 5.11999 11.1435 5.2832V5.2832C11.0894 5.44679 10.9978 5.5955 10.8762 5.71755C10.7546 5.8396 10.6062 5.93162 10.4428 5.98633V5.98633C10.2794 6.04075 10.131 6.13237 10.0092 6.25398L1.55338 14.7079C1.5192 14.7421 1.5 14.7884 1.5 14.8368C1.5 14.8851 1.5192 14.9315 1.55338 14.9657L3.62197 17.0343C3.65419 17.0668 3.6975 17.0859 3.74323 17.0878C3.78895 17.0897 3.83371 17.0743 3.86853 17.0446C4.28711 16.6851 4.82603 16.497 5.37739 16.5179C5.92875 16.5388 6.45187 16.7672 6.84202 17.1574C7.23218 17.5475 7.46057 18.0706 7.48148 18.622C7.50239 19.1734 7.31427 19.7123 6.95478 20.1309C6.92508 20.1657 6.90964 20.2104 6.91155 20.2562C6.91347 20.3019 6.93259 20.3452 6.9651 20.3774L9.03369 22.446C9.06788 22.4802 9.11425 22.4994 9.1626 22.4994C9.21094 22.4994 9.25731 22.4802 9.2915 22.446L17.7478 13.9902C17.8694 13.8684 17.961 13.72 18.0154 13.5566V13.5566C18.0696 13.3931 18.1611 13.2443 18.2827 13.1223C18.4044 13.0002 18.5528 12.9082 18.7162 12.8535V12.8535C18.8794 12.7992 19.0277 12.7075 19.1493 12.5859L22.4465 9.28867C22.4807 9.25448 22.4999 9.20811 22.4999 9.15976C22.4999 9.11142 22.4807 9.06505 22.4465 9.03086L20.3779 6.96226C20.3457 6.92976 20.3024 6.91063 20.2566 6.90872C20.2109 6.90681 20.1662 6.92225 20.1313 6.95195C19.7133 7.31166 19.1748 7.50029 18.6236 7.48013C18.0725 7.45996 17.5492 7.23249 17.1585 6.8432V6.8432Z"
        stroke="black" stroke-miterlimit="10" />
    <path d="M11.7427 6.58347L10.9688 5.80957" stroke="black" stroke-miterlimit="10" strokeLinecap="round" />
    <path d="M13.8052 8.64551L13.2891 8.12988" stroke="black" stroke-miterlimit="10" strokeLinecap="round" />
    <path d="M15.8691 10.7099L15.3535 10.1938" stroke="black" stroke-miterlimit="10" strokeLinecap="round" />
    <path d="M18.1909 13.0317L17.417 12.2578" stroke="black" stroke-miterlimit="10" strokeLinecap="round" />
</svg>