<svg width="24" height="24" viewBox="0 0 28 28" fill="none" xmlns="http://www.w3.org/2000/svg">
    <path
        d="M25.2029 1H17.5217C17.2828 0.999827 17.0536 1.0942 16.8842 1.2625L1.52793 16.6188C1.19169 16.9566 1.00293 17.4139 1.00293 17.8906C1.00293 18.3673 1.19169 18.8246 1.52793 19.1625L8.84043 26.475C9.17833 26.8112 9.63562 27 10.1123 27C10.589 27 11.0463 26.8112 11.3842 26.475L26.7342 11.125C26.9025 10.9555 26.9969 10.7263 26.9967 10.4875V2.8C26.9978 2.56383 26.9523 2.32975 26.8626 2.11125C26.773 1.89276 26.641 1.69414 26.4743 1.52685C26.3075 1.35956 26.1094 1.22688 25.8912 1.13646C25.673 1.04605 25.4391 0.999669 25.2029 1Z"
        stroke="black" strokeLinecap="round" strokeLinejoin="round" />
</svg>