<svg width="25" height="24" viewBox="0 0 25 24" fill="none" xmlns="http://www.w3.org/2000/svg">
    <path fill-rule="evenodd" clip-rule="evenodd"
        d="M12.5004 3C12.7014 3 12.9024 3.061 13.0754 3.182L17.0754 5.996C17.5274 6.314 17.6364 6.938 17.3184 7.389C17.0004 7.841 16.3774 7.95 15.9254 7.632L13.4978 5.92426C13.4996 5.94927 13.5006 5.97453 13.5006 6.00002L13.5006 14C13.5006 14.552 13.0536 15 12.5006 15C11.9476 15 11.5006 14.552 11.5006 14L11.5006 6.00002L9.10038 7.8C8.65838 8.133 8.03138 8.042 7.70038 7.6C7.36838 7.158 7.45838 6.531 7.90038 6.2L11.9004 3.2C12.0774 3.067 12.2894 3 12.5004 3ZM6.5 17V18H18.5V17C18.5 16.45 18.95 16 19.5 16C20.05 16 20.5 16.45 20.5 17V19C20.5 19.55 20.05 20 19.5 20H5.5C4.95 20 4.5 19.55 4.5 19V17C4.5 16.45 4.95 16 5.5 16C6.05 16 6.5 16.45 6.5 17Z"
        fill="black" />
</svg>